<?xml version="1.0" encoding="UTF-8"?>
<svg id="a" data-name="레이어 1" xmlns="http://www.w3.org/2000/svg" width="424.354" height="127.047" viewBox="0 0 424.354 127.047">
  <g>
    <rect x="2.982" y="3.753" width="29.885" height="29.885" fill="#d6d6d6" stroke="#000" stroke-miterlimit="10"/>
    <rect x="32.867" y="3.753" width="29.885" height="29.885" fill="#fff" stroke="#000" stroke-miterlimit="10"/>
    <rect x="62.752" y="3.753" width="29.885" height="29.885" fill="#fff" stroke="#000" stroke-miterlimit="10"/>
    <rect x="92.637" y="3.753" width="29.885" height="29.885" fill="#fff" stroke="#000" stroke-miterlimit="10"/>
    <rect x="122.522" y="3.753" width="29.885" height="29.885" fill="#fff" stroke="#000" stroke-miterlimit="10"/>
    <rect x="152.407" y="3.753" width="29.885" height="29.885" fill="#fff" stroke="#000" stroke-miterlimit="10"/>
    <rect x="182.292" y="3.753" width="29.885" height="29.885" fill="#fff" stroke="#000" stroke-miterlimit="10"/>
    <rect x="212.177" y="3.753" width="29.885" height="29.885" fill="#fff" stroke="#000" stroke-miterlimit="10"/>
    <rect x="242.062" y="3.753" width="29.885" height="29.885" fill="#fff" stroke="#000" stroke-miterlimit="10"/>
    <rect x="271.947" y="3.753" width="29.885" height="29.885" fill="#fff" stroke="#000" stroke-miterlimit="10"/>
    <rect x="301.832" y="3.753" width="29.885" height="29.885" fill="#fff" stroke="#000" stroke-miterlimit="10"/>
    <rect x="331.717" y="3.753" width="29.885" height="29.885" fill="#d6d6d6" stroke="#000" stroke-miterlimit="10"/>
    <rect x="361.603" y="3.753" width="29.885" height="29.885" fill="#d6d6d6" stroke="#000" stroke-miterlimit="10"/>
    <rect x="391.488" y="3.753" width="29.885" height="29.885" fill="#d6d6d6" stroke="#000" stroke-miterlimit="10"/>
  </g>
  <g>
    <rect x="17.924" y="33.639" width="29.885" height="29.885" fill="#fff" stroke="#000" stroke-miterlimit="10"/>
    <rect x="47.809" y="33.639" width="29.885" height="29.885" fill="#fff" stroke="#000" stroke-miterlimit="10"/>
    <rect x="77.694" y="33.639" width="29.885" height="29.885" fill="#fff" stroke="#000" stroke-miterlimit="10"/>
    <rect x="107.58" y="33.639" width="29.885" height="29.885" fill="#fff" stroke="#000" stroke-miterlimit="10"/>
    <rect x="137.465" y="33.639" width="29.885" height="29.885" fill="#fff" stroke="#000" stroke-miterlimit="10"/>
    <rect x="167.35" y="33.639" width="29.885" height="29.885" fill="#fff" stroke="#000" stroke-miterlimit="10"/>
    <rect x="197.235" y="33.639" width="29.885" height="29.885" fill="#fff" stroke="#000" stroke-miterlimit="10"/>
    <rect x="227.12" y="33.639" width="29.885" height="29.885" fill="#fff" stroke="#000" stroke-miterlimit="10"/>
    <rect x="257.005" y="33.639" width="29.885" height="29.885" fill="#fff" stroke="#000" stroke-miterlimit="10"/>
    <rect x="286.89" y="33.639" width="29.885" height="29.885" fill="#fff" stroke="#000" stroke-miterlimit="10"/>
    <rect x="316.775" y="33.639" width="29.885" height="29.885" fill="#d6d6d6" stroke="#000" stroke-miterlimit="10"/>
    <rect x="346.66" y="33.639" width="29.885" height="29.885" fill="#d6d6d6" stroke="#000" stroke-miterlimit="10"/>
  </g>
  <g>
    <path d="M57.992,54.383v-12.8h1.184v12.8h-1.184ZM59.992,54.383v-12.8h1.168v12.8h-1.168ZM60.584,41.583h6.256v1.184h-6.256v-1.184ZM60.584,47.391h6.256v1.184h-6.256v-1.184ZM60.584,53.215h6.256v1.184h-6.256v-1.184ZM66.248,54.383v-12.8h1.184v12.8h-1.184Z" stroke-width="0"/>
    <path d="M28.099,42.767h9.52v1.168h-9.52v-1.168ZM37.171,54.383h-1.184c-.342-.949-.611-1.957-.809-3.024-.197-1.066-.307-1.894-.328-2.48l-.031-.896v-6.4h1.168v6.4c0,.085.002.206.008.36.005.155.029.475.072.96.042.485.101.971.176,1.456.074.485.191,1.062.352,1.728s.352,1.299.576,1.896Z" stroke-width="0"/>
    <path d="M87.032,54.367v-12.8h1.184v12.8h-1.184ZM88.887,54.367v-12.8h1.185v12.8h-1.185ZM90.744,54.367v-12.8h1.184v12.8h-1.184ZM91.336,41.567h6.272v1.184h-6.272v-1.184ZM91.336,47.375h6.272v1.184h-6.272v-1.184ZM91.336,53.199h6.272v1.184h-6.272v-1.184ZM95.16,41.215v-.992h1.168v.992h-1.168ZM97.015,41.215v-.992h1.185v.992h-1.185ZM97.015,54.367v-12.8h1.185v12.8h-1.185Z" stroke-width="0"/>
    <path d="M123.287,45.087c0,1.045-.395,1.915-1.185,2.608-.661.587-1.429.88-2.304.88-.971,0-1.797-.341-2.479-1.024s-1.024-1.504-1.024-2.464v-3.504h1.185v3.504c0,.629.226,1.17.68,1.624.453.454,1,.68,1.64.68s1.185-.226,1.632-.68c.448-.454.672-.995.672-1.624h1.185ZM129.094,50.895c0,.96-.339,1.781-1.016,2.464-.678.683-1.499,1.024-2.464,1.024s-1.792-.341-2.48-1.024c-.688-.683-1.032-1.504-1.032-2.464v-9.312h1.185v9.312c0,.64.227,1.184.68,1.632.453.448,1,.672,1.641.672s1.187-.224,1.64-.672c.453-.448.68-.992.68-1.632h1.168Z" stroke-width="0"/>
    <path d="M154.079,45.087c0,1.045-.395,1.915-1.185,2.608-.661.587-1.429.88-2.304.88-.971,0-1.797-.341-2.479-1.024s-1.024-1.504-1.024-2.464v-3.504h1.185v3.504c0,.64.226,1.184.68,1.632.453.448,1,.672,1.64.672s1.185-.224,1.632-.672c.448-.448.672-.992.672-1.632h1.185ZM152.894,54.383v-12.8h1.185v12.8h-1.185ZM156.926,46.687h-1.312l-2.592-5.104h1.327l2.576,5.104ZM156.207,41.583l.592,1.184h-1.328l-.592-1.184h1.328ZM158.142,45.407h-1.312l-.656-1.28h1.312l.655,1.28Z" stroke-width="0"/>
    <path d="M181.046,41.583l-2.128,12.8h-1.185l2.128-12.8h1.185ZM177.734,42.767h8.896v1.184h-8.896v-1.184ZM177.734,45.407h8.896v1.168h-8.896v-1.168ZM185.959,51.471l-7.04,2.912v-1.168l7.04-2.912v1.168ZM186.999,54.383h-1.185l-.896-5.456h1.184l.896,5.456Z" stroke-width="0"/>
    <path d="M207.461,42.767h9.521v1.168h-9.521v-1.168ZM208.053,54.383v-6.4h1.185v6.4h-1.185ZM214.181,54.383v-12.8h1.168v12.8h-1.168Z" stroke-width="0"/>
    <path d="M241.132,41.583l-4,12.8h-1.344l4-12.8h1.344ZM242.781,45.087c0,1.045-.39,1.915-1.168,2.608-.661.587-1.435.88-2.32.88-.96,0-1.784-.341-2.472-1.024-.688-.683-1.032-1.504-1.032-2.464v-3.504h1.185v3.504c0,.629.227,1.17.68,1.624s1,.68,1.64.68,1.187-.226,1.641-.68c.453-.454.68-.995.68-1.624h1.168ZM247.485,47.263c-.48.587-1.861,1.683-4.145,3.288-2.282,1.605-4.202,2.883-5.76,3.832h-1.792c1.131-.693,2.305-1.464,3.521-2.312s2.288-1.632,3.216-2.352c.928-.72,1.773-1.389,2.536-2.008s1.347-1.104,1.752-1.456l.607-.528c.021.011.051.032.088.064.038.032.089.101.152.208.064.106.109.216.136.328.027.112.019.253-.023.424-.043.17-.139.341-.288.512ZM248.605,50.895c0,.96-.342,1.781-1.024,2.464s-1.507,1.024-2.472,1.024-1.79-.341-2.472-1.024c-.684-.683-1.024-1.504-1.024-2.464v-9.312h1.168v9.312c0,.64.227,1.184.68,1.632.453.448,1,.672,1.641.672s1.187-.224,1.64-.672c.453-.448.68-.992.68-1.632h1.185ZM246.053,44.351c.293-.288.645-.432,1.056-.432s.76.144,1.048.432c.288.288.432.635.432,1.04,0,.363-.117.688-.352.976-.011.011-.043.048-.096.112-.267.267-.614.4-1.04.4-.182,0-.347-.021-.496-.064-.288-.106-.525-.288-.712-.544-.188-.256-.28-.549-.28-.88,0-.405.146-.752.44-1.04ZM247.469,45.663c.053-.096.079-.187.079-.272,0-.117-.042-.218-.128-.304-.085-.085-.189-.128-.312-.128-.123,0-.227.042-.312.128-.085.085-.128.189-.128.312s.043.227.128.312c.086.085.189.128.312.128.122,0,.221-.037.296-.112l.064-.064Z" stroke-width="0"/>
    <path d="M265.997,45.967l2.464-4.384h1.456l-2.464,4.384h-1.456ZM266.781,46.959h10.447v1.184h-10.447v-1.184ZM267.964,47.551v6.256h-1.184v-6.256h1.184ZM266.781,53.215h10.447v1.184h-10.447v-1.184ZM272.588,41.583v12.128h-1.168v-12.128h1.168ZM278.012,45.967h-1.456l-2.464-4.384h1.456l2.464,4.384ZM277.228,47.551v6.256h-1.168v-6.256h1.168Z" stroke-width="0"/>
    <path d="M300.308,41.983l-2.128,12.8h-1.185l2.128-12.8h1.185ZM296.996,41.983h9.696v1.184h-9.696v-1.184ZM305.22,51.871l-7.04,2.912v-1.168l7.04-2.912v1.168ZM302.916,39.439l-1.071,2.256h-1.089l.721-2.256h1.439ZM306.692,54.783h-1.184l-1.488-8.976h1.184l1.488,8.976Z" stroke-width="0"/>
  </g>
  <g>
    <rect x="32.867" y="63.524" width="29.885" height="29.885" fill="#fff" stroke="#000" stroke-miterlimit="10"/>
    <rect x="62.752" y="63.524" width="29.885" height="29.885" fill="#fff" stroke="#000" stroke-miterlimit="10"/>
    <rect x="92.637" y="63.524" width="29.885" height="29.885" fill="#fff" stroke="#000" stroke-miterlimit="10"/>
    <rect x="122.522" y="63.524" width="29.885" height="29.885" fill="#ffce00" stroke="#000" stroke-miterlimit="10"/>
    <rect x="152.407" y="63.524" width="29.885" height="29.885" fill="#fff" stroke="#000" stroke-miterlimit="10"/>
    <rect x="182.292" y="63.524" width="29.885" height="29.885" fill="#fff" stroke="#000" stroke-miterlimit="10"/>
    <rect x="212.177" y="63.524" width="29.885" height="29.885" fill="#ffce00" stroke="#000" stroke-miterlimit="10"/>
    <rect x="242.062" y="63.524" width="29.885" height="29.885" fill="#fff" stroke="#000" stroke-miterlimit="10"/>
    <rect x="271.947" y="63.524" width="29.885" height="29.885" fill="#fff" stroke="#000" stroke-miterlimit="10"/>
    <rect x="301.832" y="63.524" width="29.885" height="29.885" fill="#d6d6d6" stroke="#000" stroke-miterlimit="10"/>
    <rect x="331.717" y="63.524" width="29.885" height="29.885" fill="#d6d6d6" stroke="#000" stroke-miterlimit="10"/>
  </g>
  <g>
    <path d="M51.719,71.469l-6.048,5.328h-1.84l6.031-5.328h1.856ZM43.832,71.469h1.248c.053.075.114.176.184.304s.171.395.304.8c.134.405.222.808.265,1.208.042.4.008.877-.104,1.432-.112.555-.328,1.083-.647,1.584h-1.248c.319-.49.538-1.01.655-1.56.117-.549.146-1.037.088-1.464-.059-.426-.141-.821-.247-1.184-.107-.362-.219-.64-.337-.832l-.159-.288ZM44.055,84.268v-6.992h1.184v6.992h-1.184ZM44.647,77.276h6.256v1.184h-6.256v-1.184ZM44.647,80.188h6.256v1.184h-6.256v-1.184ZM44.647,83.1h6.256v1.184h-6.256v-1.184ZM51.719,76.796h-1.264c-.043-.064-.1-.162-.168-.296-.07-.133-.171-.4-.305-.8-.133-.4-.224-.803-.271-1.208s-.017-.885.096-1.44.328-1.083.648-1.584h1.264c-.32.491-.539,1.011-.656,1.56-.117.55-.146,1.04-.088,1.472s.142.827.248,1.184.213.632.32.824l.176.288ZM50.311,84.268v-6.992h1.185v6.992h-1.185Z" stroke-width="0"/>
    <path d="M73.814,81.372c.288.523.433,1.008.433,1.456,0,.192-.035.411-.104.656-.069.246-.142.438-.216.576l-.112.224h-1.184c.299-.501.448-.987.448-1.456,0-.213-.038-.44-.112-.68-.074-.24-.149-.429-.224-.568l-.112-.208h1.184ZM73.079,81.132v-9.664h1.168v9.664h-1.168ZM73.67,71.469h6.256v1.184h-6.256v-1.184ZM73.67,75.708h6.256v1.184h-6.256v-1.184ZM73.67,79.949h6.256v1.184h-6.256v-1.184ZM80.518,81.372v1.072l-6.704,1.84v-1.072l6.704-1.84ZM79.335,81.132v-9.664h1.184v9.664h-1.184ZM81.398,75.708c-.287-.768-.432-1.477-.432-2.128,0-.288.037-.608.112-.96.074-.352.149-.629.224-.832l.096-.32h1.185c-.288.725-.433,1.429-.433,2.112,0,.31.035.64.104.992.069.352.142.629.216.832l.112.304h-1.185ZM81.398,84.284c-.287-1.557-.432-2.987-.432-4.288,0-.586.037-1.237.112-1.952.074-.714.149-1.28.224-1.696l.096-.64h1.185c-.288,1.461-.433,2.891-.433,4.288,0,.619.035,1.286.104,2,.069.715.142,1.275.216,1.68l.112.608h-1.185Z" stroke-width="0"/>
    <path d="M112.774,72.652h-10.464v-1.184h10.464v1.184ZM102.31,78.316v-6.256h1.184v6.256h-1.184ZM112.774,78.909h-10.464v-1.184h10.464v1.184ZM106.23,79.885l-2.465,4.4h-1.455l2.464-4.4h1.456ZM106.95,84.284v-12.128h1.185v12.128h-1.185ZM112.757,80.348l-4.191,3.936h-1.616l4.192-3.936h1.615ZM111.589,78.316v-6.256h1.168v6.256h-1.168Z" stroke-width="0"/>
    <path d="M137.149,71.469v3.824c0,1.173-.005,2.027-.016,2.56-.011.534-.051,1.182-.12,1.944-.069.763-.187,1.475-.352,2.136-.166.662-.393,1.44-.681,2.336h-1.184c.288-.896.515-1.674.68-2.336.166-.661.283-1.374.353-2.136.069-.762.111-1.41.128-1.944.016-.533.023-1.387.023-2.56v-3.824h1.168ZM138.477,84.268v-12.8h1.185v12.8h-1.185Z" stroke-width="0"/>
    <path d="M163.596,71.469h6.849v1.184h-6.849v-1.184ZM163.596,84.268v-6.992h1.185v6.992h-1.185ZM164.188,83.1h6.849v1.184h-6.849v-1.184ZM169.852,78.46v-6.992h1.185v6.992h-1.185Z" stroke-width="0"/>
    <path d="M193.532,84.268v-10.16h1.185v10.16h-1.185ZM194.124,74.108h6.257v1.168h-6.257v-1.168ZM196.669,75.276v-3.808h1.168v3.808h-1.168ZM199.788,84.268v-10.16h1.185v10.16h-1.185Z" stroke-width="0"/>
    <path d="M226.259,71.469l-4,12.8h-1.344l4-12.8h1.344ZM227.908,74.972c0,1.045-.395,1.915-1.184,2.608-.662.587-1.43.88-2.305.88-.971,0-1.797-.341-2.479-1.024s-1.024-1.504-1.024-2.464v-3.504h1.185v3.504c0,.629.227,1.17.68,1.624s1,.68,1.64.68,1.185-.224,1.632-.672c.448-.448.673-.992.673-1.632h1.184ZM233.364,76.236c-.555.683-1.558,1.59-3.008,2.72-1.451,1.131-2.84,2.147-4.168,3.048-1.328.902-2.488,1.656-3.48,2.264h-1.792c1.131-.693,2.305-1.464,3.521-2.312s2.288-1.632,3.216-2.352c.928-.72,1.773-1.389,2.536-2.008s1.347-1.104,1.752-1.456l.607-.528.816.624ZM223.14,71.469h1.775v1.184h-1.775v-1.184ZM233.715,81.677c0,.565-.352,1.139-1.056,1.72-.704.582-1.515.872-2.432.872-.96,0-1.784-.341-2.473-1.024-.688-.683-1.031-1.504-1.031-2.464v-9.312h1.184v9.312c0,.64.227,1.184.68,1.632.453.448,1,.672,1.641.672s1.187-.224,1.64-.672c.453-.448.68-.992.68-1.632.032,0,.075.002.128.008.054.005.146.024.28.056.134.032.253.075.36.128.106.053.2.142.28.264.079.123.119.27.119.44Z" stroke-width="0"/>
    <path d="M262.227,72.652h-10.464v-1.184h10.464v1.184ZM251.763,76.46v-4.4h1.184v4.4h-1.184ZM262.227,76.46h-10.464v-1.184h10.464v1.184ZM256.403,76.46v-4.304h1.185v4.304h-1.185ZM257.587,81.132l4.64,1.808v1.344l-4.64-1.808v-1.344ZM261.044,82.94v-10.88h1.184v10.88h-1.184Z" stroke-width="0"/>
    <path d="M282.571,84.268v-12.8h1.184v12.8h-1.184ZM291.371,72.652l-6.496,1.168v-1.168l6.496-1.184v1.184ZM291.371,83.1v1.184l-6.496-1.184v-1.184l6.496,1.184Z" stroke-width="0"/>
  </g>
  <g>
    <rect x="51.285" y="93.409" width="29.885" height="29.885" fill="#fff" stroke="#000" stroke-miterlimit="10"/>
    <rect x="81.17" y="93.409" width="29.885" height="29.885" fill="#fff" stroke="#000" stroke-miterlimit="10"/>
    <rect x="111.055" y="93.409" width="29.885" height="29.885" fill="#fff" stroke="#000" stroke-miterlimit="10"/>
    <rect x="140.941" y="93.409" width="29.885" height="29.885" fill="#fff" stroke="#000" stroke-miterlimit="10"/>
    <rect x="170.826" y="93.409" width="29.885" height="29.885" fill="#fff" stroke="#000" stroke-miterlimit="10"/>
    <rect x="200.711" y="93.409" width="29.885" height="29.885" fill="#fff" stroke="#000" stroke-miterlimit="10"/>
    <rect x="230.596" y="93.409" width="29.885" height="29.885" fill="#fff" stroke="#000" stroke-miterlimit="10"/>
    <rect x="260.481" y="93.409" width="29.885" height="29.885" fill="#d6d6d6" stroke="#000" stroke-miterlimit="10"/>
    <rect x="290.366" y="93.409" width="29.885" height="29.885" fill="#d6d6d6" stroke="#000" stroke-miterlimit="10"/>
    <rect x="320.251" y="93.409" width="29.885" height="29.885" fill="#d6d6d6" stroke="#000" stroke-miterlimit="10"/>
  </g>
  <g>
    <path d="M70.562,101.754l-.097.128-1.808,3.168-5.488,9.504h-1.376l.08-.145,1.824-3.151,5.488-9.504h1.376ZM61.841,101.769l1.248-.016c.043.182.102.427.177.735.074.31.178.95.312,1.92.134.971.222,1.937.264,2.896.043.96.009,2.109-.104,3.448s-.328,2.605-.648,3.8h-1.248c.32-1.185.539-2.435.656-3.752s.145-2.49.08-3.521c-.063-1.029-.146-1.973-.248-2.832-.102-.858-.211-1.517-.328-1.976l-.16-.704ZM67.602,99.21l-1.088,2.256h-1.088l.735-2.256h1.44ZM70.514,114.537l-1.265.017c-.011-.054-.029-.139-.056-.256-.026-.118-.077-.36-.152-.729-.074-.368-.144-.749-.208-1.144-.063-.395-.125-.889-.184-1.48s-.102-1.184-.128-1.775c-.027-.593-.032-1.254-.017-1.984.017-.73.062-1.448.137-2.152.128-1.12.33-2.208.607-3.264l1.265-.016c-.011.011-.02.029-.024.056-.006.026-.014.051-.024.072-.309,1.184-.517,2.43-.624,3.735-.106,1.307-.13,2.47-.071,3.488s.141,1.949.248,2.792c.106.843.213,1.493.319,1.952l.177.688Z" stroke-width="0"/>
    <path d="M90.345,101.353h1.328l9.744,12.8h-1.312l-9.76-12.8ZM98.153,101.353l-6.496,12.8h-1.312l6.496-12.8h1.312ZM98.153,101.353l-6.496,12.8h-1.312l6.496-12.8h1.312ZM100.761,106.441h-1.328l-2.592-5.088h1.328l2.592,5.088ZM100.025,101.353l.608,1.168h-1.328l-.608-1.168h1.328ZM101.977,105.178h-1.328l-.64-1.28h1.312l.656,1.28Z" stroke-width="0"/>
    <path d="M124.417,101.353l-2.128,12.8h-1.184l2.127-12.8h1.185ZM121.105,101.353h9.695v1.184h-9.695v-1.184ZM129.329,111.241l-7.04,2.912v-1.168l7.04-2.912v1.168ZM130.785,114.153h-1.168l-1.488-8.992h1.184l1.473,8.992Z" stroke-width="0"/>
    <path d="M151,102.537h9.696v1.168h-9.696v-1.168ZM151,107.161h9.696v1.185h-9.696v-1.185ZM151,112.985h9.696v1.185h-9.696v-1.185ZM155.255,114.153v-12.8h1.185v12.8h-1.185Z" stroke-width="0"/>
    <path d="M182.023,101.353h6.848v1.184h-6.848v-1.184ZM182.023,114.153v-8.176h1.185v8.176h-1.185ZM182.615,105.977h6.256v1.184h-6.256v-1.184ZM182.615,108.346h6.256v1.168h-6.256v-1.168ZM182.615,112.985h6.849v1.185h-6.849v-1.185ZM188.279,109.513v-8.16h1.185v8.16h-1.185Z" stroke-width="0"/>
    <path d="M216.63,101.353l-6.16,5.184h-1.792l6.16-5.184h1.792ZM211.974,114.153v-8.992h1.185v8.992h-1.185ZM212.567,105.161h6.256v1.185h-6.256v-1.185ZM212.567,109.082h6.256v1.168h-6.256v-1.168ZM212.567,112.985h6.256v1.185h-6.256v-1.185ZM214.775,101.353h1.792l6.144,5.184h-1.792l-6.144-5.184ZM218.23,114.153v-8.992h1.185v8.992h-1.185Z" stroke-width="0"/>
    <path d="M241.83,114.153v-12.8h1.185v12.8h-1.185ZM242.422,101.353h6.256v1.184h-6.256v-1.184ZM242.422,112.985h6.256v1.185h-6.256v-1.185ZM248.086,114.153v-12.8h1.184v12.8h-1.184Z" stroke-width="0"/>
    <path d="M270.551,101.353h6.256v1.184h-6.256v-1.184ZM270.551,105.161h6.256v1.185h-6.256v-1.185ZM276.248,114.153l-2.368-3.023h1.472l2.368,3.023h-1.472ZM276.536,114.153l2.704-12.8h1.184l-2.704,12.8h-1.184Z" stroke-width="0"/>
    <path d="M301.888,111.338l2.432,2.815h-1.439l-2.432-2.815h1.439ZM300.705,101.353h8.111v1.184h-8.111v-1.184ZM303.152,114.153v-6.992h1.168v6.992h-1.168ZM309.745,101.353l-3.904,5.12h-1.521l3.904-5.12h1.521ZM307.28,107.161l2.704,6.992h-1.424l-2.704-6.992h1.424Z" stroke-width="0"/>
  </g>
  <g>
    <path d="M73.934,24.498v-12.8h1.185v12.8h-1.185ZM74.527,11.699h6.256v1.184h-6.256v-1.184ZM74.527,17.506h6.256v1.184h-6.256v-1.184ZM74.527,23.33h6.256v1.184h-6.256v-1.184ZM80.191,24.498v-12.8h1.184v12.8h-1.184Z" stroke-width="0"/>
    <path d="M43.465,24.498v-12.8h1.185v12.8h-1.185ZM44.058,11.699h8.111v1.184h-8.111v-1.184ZM44.058,23.33h8.111v1.184h-8.111v-1.184Z" stroke-width="0"/>
    <path d="M108.469,11.699l-3.855,6.416-1.568-.016,3.856-6.4h1.567ZM103.045,14.323h8.896v1.168h-8.896v-1.168ZM108.469,24.514l-1.567-.016-3.856-6.4,1.568.016,3.855,6.4ZM111.942,14.323v4.432h-1.185v-4.432h1.185Z" stroke-width="0"/>
    <path d="M141.83,11.699l-.097.112v.016l-1.808,3.168-5.488,9.504h-1.376l.08-.144,1.824-3.168,5.488-9.488h1.376ZM133.109,11.714l1.248-.016c.043.17.102.413.177.728.074.314.178.955.312,1.92.133.965.222,1.931.264,2.896.043.965.009,2.117-.104,3.456-.112,1.338-.328,2.6-.648,3.784l-1.248.016c.32-1.194.539-2.451.656-3.768s.145-2.488.08-3.512c-.064-1.024-.146-1.965-.248-2.824-.102-.858-.211-1.522-.328-1.992l-.16-.688ZM141.781,24.482l-1.264.016c-.011-.064-.029-.152-.056-.264-.027-.112-.078-.352-.152-.72-.074-.368-.144-.75-.208-1.144-.063-.395-.125-.891-.184-1.488-.059-.597-.102-1.189-.128-1.776-.027-.586-.032-1.248-.017-1.984.017-.736.062-1.451.137-2.144.128-1.12.33-2.213.607-3.28h1.264c-.011.011-.019.029-.023.056-.006.027-.014.045-.024.056v.016c-.31,1.184-.518,2.429-.624,3.736s-.131,2.467-.071,3.48c.059,1.014.141,1.944.248,2.792.106.848.213,1.501.319,1.96l.176.688Z" stroke-width="0"/>
    <path d="M162.861,12.85h8.704v1.168h-8.704v-1.168ZM163.453,24.498v-12.8h1.184v12.8h-1.184ZM163.453,23.33h8.112v1.184h-8.112v-1.184ZM170.397,15.266v-2.416h1.168v2.416h-1.168Z" stroke-width="0"/>
    <path d="M193.588,15.186h7.296v1.168h-7.296v-1.168ZM193.588,19.843h7.296v1.184h-7.296v-1.184ZM196.644,24.498v-12.8h1.185v12.8h-1.185Z" stroke-width="0"/>
    <path d="M226.18,11.714l-3.28,12.8-1.376-.032,3.28-12.784,1.376.016ZM228.292,11.714v12.8l-1.567-.032v-12.784l1.567.016ZM232.82,15.506l-4.528,8.992-1.567-.016,4.527-8.976h1.568Z" stroke-width="0"/>
    <path d="M252.195,19.33h9.696v1.184h-9.696v-1.184ZM255.507,19.33l-2.128,5.184h-1.185l2.128-5.184h1.185ZM253.315,18.69v-6.992h1.185v6.992h-1.185ZM260.755,23.33l-7.44,1.184v-1.184l7.44-1.184v1.184ZM253.907,11.699h6.256v1.184h-6.256v-1.184ZM253.907,14.61h6.256v1.184h-6.256v-1.184ZM253.907,17.522h6.256v1.184h-6.256v-1.184ZM261.876,24.514h-1.168l-1.36-3.296h1.184l1.345,3.296ZM259.587,18.69v-6.992h1.168v6.992h-1.168Z" stroke-width="0"/>
    <path d="M287.931,11.699l-4.448,7.36h-1.393l4.448-7.36h1.393ZM282.09,12.882h8.896v1.168h-8.896v-1.168ZM282.09,15.506h8.896v1.184h-8.896v-1.184ZM282.09,24.498l5.28-6.4h1.521l-5.28,6.4h-1.521ZM287.931,24.498h-1.393l-4.448-5.44h1.393l4.448,5.44ZM290.987,23.33h-1.12l-2.08-5.232h1.104l2.096,5.232ZM290.187,18.098l.336.832h-.977l-.336-.832h.977ZM291.962,22.498h-.96l-.336-.832h.977l.319.832Z" stroke-width="0"/>
    <path d="M311.747,21.17v-9.472h1.184v9.472h-1.184ZM313.875,22.21l-.832,2.272h-1.296l.815-2.272h1.312ZM312.338,11.699h2.544v1.184h-2.544v-1.184ZM312.338,20.002h2.544v1.184h-2.544v-1.184ZM315.474,22.226l1.937,2.272h-1.553l-1.952-2.272h1.568ZM314.291,21.17v-9.472h1.184v9.472h-1.184ZM316.243,24.498v-12.8h1.168v12.8h-1.168ZM318.178,21.17v-9.472h1.184v9.472h-1.184ZM318.77,11.699h2.544v1.184h-2.544v-1.184ZM318.77,20.002h2.544v1.184h-2.544v-1.184ZM320.722,21.17v-9.472h1.184v9.472h-1.184Z" stroke-width="0"/>
    <path d="M341.14,11.699h4.736v1.184h-4.736v-1.184ZM352.276,21.907c0,.565-.354,1.139-1.063,1.72-.71.582-1.518.872-2.424.872-.961,0-1.784-.341-2.473-1.024-.688-.683-1.032-1.504-1.032-2.464v-9.312h1.185v9.312c0,.64.227,1.184.68,1.632.453.448,1,.672,1.641.672s1.184-.224,1.632-.672c.447-.448.672-.992.672-1.632.032,0,.074.002.128.008.053.005.149.024.288.056.139.032.259.075.359.128.102.053.195.142.28.264.085.123.128.27.128.44Z" stroke-width="0"/>
  </g>
</svg>