<?xml version="1.0" encoding="UTF-8"?>
<svg id="a" data-name="레이어 1" xmlns="http://www.w3.org/2000/svg" width="424.354" height="127.047" viewBox="0 0 424.354 127.047">
  <g>
    <rect x="2.982" y="3.753" width="29.885" height="29.885" fill="#d6d6d6" stroke="#000" stroke-miterlimit="10"/>
    <rect x="32.867" y="3.753" width="29.885" height="29.885" fill="#fff" stroke="#000" stroke-miterlimit="10"/>
    <rect x="62.752" y="3.753" width="29.885" height="29.885" fill="#fff" stroke="#000" stroke-miterlimit="10"/>
    <rect x="92.637" y="3.753" width="29.885" height="29.885" fill="#fff" stroke="#000" stroke-miterlimit="10"/>
    <rect x="122.522" y="3.753" width="29.885" height="29.885" fill="#fff" stroke="#000" stroke-miterlimit="10"/>
    <rect x="152.407" y="3.753" width="29.885" height="29.885" fill="#fff" stroke="#000" stroke-miterlimit="10"/>
    <rect x="182.292" y="3.753" width="29.885" height="29.885" fill="#fff" stroke="#000" stroke-miterlimit="10"/>
    <rect x="212.177" y="3.753" width="29.885" height="29.885" fill="#fff" stroke="#000" stroke-miterlimit="10"/>
    <rect x="242.062" y="3.753" width="29.885" height="29.885" fill="#fff" stroke="#000" stroke-miterlimit="10"/>
    <rect x="271.947" y="3.753" width="29.885" height="29.885" fill="#fff" stroke="#000" stroke-miterlimit="10"/>
    <rect x="301.832" y="3.753" width="29.885" height="29.885" fill="#fff" stroke="#000" stroke-miterlimit="10"/>
    <rect x="331.717" y="3.753" width="29.885" height="29.885" fill="#d6d6d6" stroke="#000" stroke-miterlimit="10"/>
    <rect x="361.603" y="3.753" width="29.885" height="29.885" fill="#d6d6d6" stroke="#000" stroke-miterlimit="10"/>
    <rect x="391.488" y="3.753" width="29.885" height="29.885" fill="#d6d6d6" stroke="#000" stroke-miterlimit="10"/>
  </g>
  <g>
    <rect x="17.924" y="33.639" width="29.885" height="29.885" fill="#fff" stroke="#000" stroke-miterlimit="10"/>
    <rect x="47.809" y="33.639" width="29.885" height="29.885" fill="#fff" stroke="#000" stroke-miterlimit="10"/>
    <rect x="77.694" y="33.639" width="29.885" height="29.885" fill="#fff" stroke="#000" stroke-miterlimit="10"/>
    <rect x="107.58" y="33.639" width="29.885" height="29.885" fill="#fff" stroke="#000" stroke-miterlimit="10"/>
    <rect x="137.465" y="33.639" width="29.885" height="29.885" fill="#fff" stroke="#000" stroke-miterlimit="10"/>
    <rect x="167.35" y="33.639" width="29.885" height="29.885" fill="#fff" stroke="#000" stroke-miterlimit="10"/>
    <rect x="197.235" y="33.639" width="29.885" height="29.885" fill="#fff" stroke="#000" stroke-miterlimit="10"/>
    <rect x="227.12" y="33.639" width="29.885" height="29.885" fill="#fff" stroke="#000" stroke-miterlimit="10"/>
    <rect x="257.005" y="33.639" width="29.885" height="29.885" fill="#fff" stroke="#000" stroke-miterlimit="10"/>
    <rect x="286.89" y="33.639" width="29.885" height="29.885" fill="#fff" stroke="#000" stroke-miterlimit="10"/>
    <rect x="316.775" y="33.639" width="29.885" height="29.885" fill="#d6d6d6" stroke="#000" stroke-miterlimit="10"/>
    <rect x="346.66" y="33.639" width="29.885" height="29.885" fill="#d6d6d6" stroke="#000" stroke-miterlimit="10"/>
  </g>
  <g>
    <g>
      <path d="M52.634,46.024c.38-1.239.935-2.385,1.664-3.438h1.188c-.354.521-.688,1.195-1,2.023s-.565,1.722-.758,2.68c-.192.958-.289,1.886-.289,2.781s.097,1.826.289,2.789c.192.964.445,1.859.758,2.688s.646,1.502,1,2.023h-1.188c-.729-1.073-1.284-2.229-1.664-3.469s-.575-2.583-.586-4.031c.011-1.458.206-2.807.586-4.047Z" stroke-width="0"/>
      <path d="M68.345,54.383h-1.297v-1.328h-.109c-.188.458-.477.812-.867,1.062s-.862.375-1.414.375c-.364,0-.692-.055-.984-.164s-.544-.271-.758-.484c-.214-.213-.388-.477-.523-.789h-.094c-.146.302-.341.56-.586.773-.245.214-.534.378-.867.492s-.698.172-1.094.172c-.521,0-.974-.107-1.359-.32s-.688-.536-.906-.969c-.219-.432-.328-.977-.328-1.633v-5.672h1.344v5.656c0,.594.161,1.031.484,1.312s.734.422,1.234.422c.386,0,.719-.081,1-.242.281-.161.495-.383.641-.664s.219-.604.219-.969v-5.516h1.359v5.797c0,.312.07.591.211.836.141.245.336.433.586.562.25.13.536.195.859.195.333,0,.646-.088.938-.266.292-.177.526-.424.703-.742.177-.317.266-.68.266-1.086v-5.297h1.344v8.484Z" stroke-width="0"/>
      <path d="M73.455,50.071c-.011,1.448-.206,2.792-.586,4.031s-.935,2.396-1.664,3.469h-1.188c.354-.521.688-1.195,1-2.023s.565-1.724.758-2.688c.192-.963.289-1.893.289-2.789s-.097-1.823-.289-2.781c-.192-.958-.445-1.852-.758-2.68s-.646-1.502-1-2.023h1.188c.729,1.052,1.284,2.198,1.664,3.438.38,1.24.575,2.589.586,4.047Z" stroke-width="0"/>
    </g>
    <path d="M90.764,54.016c-.599-.359-1.06-.867-1.383-1.523s-.484-1.417-.484-2.281.161-1.633.484-2.305.773-1.192,1.352-1.562c.578-.37,1.247-.555,2.008-.555.646,0,1.245.141,1.797.422s1,.74,1.344,1.375c.344.636.516,1.448.516,2.438v.562h-6.562v-1.141h5.203c0-.479-.094-.903-.281-1.273-.188-.37-.456-.661-.805-.875-.349-.213-.753-.32-1.211-.32-.5,0-.938.123-1.312.367-.375.245-.667.573-.875.984-.208.412-.312.852-.312,1.32v.766c0,.625.109,1.159.328,1.602.219.443.526.779.922,1.008.396.229.854.344,1.375.344.323,0,.614-.044.875-.133.261-.088.481-.203.664-.344s.325-.305.43-.492h1.438c-.136.427-.359.802-.672,1.125-.312.323-.703.576-1.172.758s-.989.273-1.562.273c-.802,0-1.503-.18-2.102-.539Z" stroke-width="0"/>
    <path d="M120.824,45.899h1.297v1.297h.094c.156-.438.435-.786.836-1.047.401-.26.852-.391,1.352-.391.261,0,.495.011.703.031v1.359c-.052-.021-.161-.042-.328-.062-.167-.021-.328-.031-.484-.031-.396,0-.755.086-1.078.258s-.578.409-.766.711c-.188.302-.281.641-.281,1.016v5.344h-1.344v-8.484Z" stroke-width="0"/>
    <path d="M154.501,47.024h-4.422v-1.125h4.422v1.125ZM152.719,43.867v8.078c0,.344.05.607.148.789.099.183.229.308.391.375.161.068.352.102.57.102.261,0,.526-.01.797-.031v1.25c-.271.042-.583.062-.938.062-.396,0-.771-.083-1.125-.25s-.644-.417-.867-.75c-.224-.333-.336-.734-.336-1.203v-8.422h1.359Z" stroke-width="0"/>
    <path d="M184.216,46.266c.599.359,1.06.867,1.383,1.523s.484,1.417.484,2.281-.161,1.633-.484,2.305-.773,1.193-1.352,1.562c-.578.37-1.247.555-2.008.555-.646,0-1.245-.141-1.797-.422s-1-.739-1.344-1.375c-.344-.635-.516-1.448-.516-2.438v-.562h6.562v1.141h-5.203c0,.479.094.904.281,1.273.188.37.456.662.805.875.349.214.753.32,1.211.32.5,0,.938-.122,1.312-.367.375-.245.667-.573.875-.984.208-.411.312-.852.312-1.32v-.766c0-.625-.109-1.159-.328-1.602-.219-.442-.526-.778-.922-1.008-.396-.229-.854-.344-1.375-.344-.323,0-.614.044-.875.133-.261.089-.481.203-.664.344s-.325.305-.43.492h-1.438c.136-.427.359-.802.672-1.125.312-.323.703-.575,1.172-.758.469-.182.989-.273,1.562-.273.802,0,1.503.18,2.102.539Z" stroke-width="0"/>
    <path d="M214.245,45.899h1.328v8.484h-1.328v-1.438h-.094c-.219.458-.539.831-.961,1.117-.422.287-.94.43-1.555.43-.542,0-1.019-.12-1.43-.359-.411-.239-.734-.599-.969-1.078-.234-.479-.352-1.067-.352-1.766v-5.391h1.344v5.297c0,.396.078.745.234,1.047.156.302.375.537.656.703.281.167.599.25.953.25.344,0,.683-.086,1.016-.258s.609-.432.828-.781c.219-.349.328-.768.328-1.258v-5Z" stroke-width="0"/>
    <path d="M241.664,44.375c-.146-.078-.261-.188-.344-.328s-.125-.289-.125-.445c0-.167.042-.317.125-.453.083-.135.198-.242.344-.32s.302-.117.469-.117c.177,0,.339.039.484.117s.261.185.344.32c.083.136.125.287.125.453,0,.156-.042.305-.125.445s-.198.25-.344.328-.308.117-.484.117c-.167,0-.323-.039-.469-.117ZM241.46,45.899h1.344v8.484h-1.344v-8.484Z" stroke-width="0"/>
    <path d="M270.004,54.008c-.589-.364-1.044-.877-1.367-1.539-.323-.661-.484-1.424-.484-2.289,0-.875.161-1.643.484-2.305.323-.661.778-1.174,1.367-1.539.589-.364,1.263-.547,2.023-.547s1.433.183,2.016.547c.583.365,1.034.878,1.352,1.539.317.662.477,1.43.477,2.305,0,.865-.159,1.628-.477,2.289-.317.662-.769,1.175-1.352,1.539-.583.365-1.255.547-2.016.547s-1.435-.182-2.023-.547ZM273.418,52.93c.375-.292.653-.677.836-1.156.183-.479.273-1.01.273-1.594s-.091-1.117-.273-1.602-.461-.872-.836-1.164c-.375-.292-.839-.438-1.391-.438s-1.019.146-1.398.438c-.38.292-.664.68-.852,1.164s-.281,1.019-.281,1.602.094,1.115.281,1.594c.188.479.472.865.852,1.156.38.292.847.438,1.398.438s1.016-.146,1.391-.438Z" stroke-width="0"/>
    <path d="M298.361,45.899h1.297v1.344h.156c.167-.271.328-.5.484-.688s.398-.362.727-.523c.328-.161.742-.242,1.242-.242.708,0,1.336.177,1.883.531.547.354.972.862,1.273,1.523.302.662.453,1.435.453,2.32,0,.875-.151,1.646-.453,2.312-.302.667-.727,1.18-1.273,1.539s-1.169.539-1.867.539c-.489,0-.901-.083-1.234-.25s-.583-.346-.75-.539c-.167-.192-.328-.419-.484-.68h-.109v4.484h-1.344v-11.672ZM299.955,51.813c.188.484.464.862.828,1.133.364.271.802.406,1.312.406.521,0,.966-.141,1.336-.422s.646-.664.828-1.148.273-1.034.273-1.648c0-.604-.091-1.143-.273-1.617-.183-.474-.456-.846-.82-1.117-.364-.271-.812-.406-1.344-.406-.521,0-.961.13-1.32.391-.359.261-.633.625-.82,1.094s-.281,1.021-.281,1.656.094,1.195.281,1.68Z" stroke-width="0"/>
  </g>
  <g>
    <rect x="32.867" y="63.524" width="29.885" height="29.885" fill="#fff" stroke="#000" stroke-miterlimit="10"/>
    <rect x="62.752" y="63.524" width="29.885" height="29.885" fill="#fff" stroke="#000" stroke-miterlimit="10"/>
    <rect x="92.637" y="63.524" width="29.885" height="29.885" fill="#fff" stroke="#000" stroke-miterlimit="10"/>
    <rect x="122.522" y="63.524" width="29.885" height="29.885" fill="#ffce00" stroke="#000" stroke-miterlimit="10"/>
    <rect x="152.407" y="63.524" width="29.885" height="29.885" fill="#fff" stroke="#000" stroke-miterlimit="10"/>
    <rect x="182.292" y="63.524" width="29.885" height="29.885" fill="#fff" stroke="#000" stroke-miterlimit="10"/>
    <rect x="212.177" y="63.524" width="29.885" height="29.885" fill="#ffce00" stroke="#000" stroke-miterlimit="10"/>
    <rect x="242.062" y="63.524" width="29.885" height="29.885" fill="#fff" stroke="#000" stroke-miterlimit="10"/>
    <rect x="271.947" y="63.524" width="29.885" height="29.885" fill="#fff" stroke="#000" stroke-miterlimit="10"/>
    <rect x="301.832" y="63.524" width="29.885" height="29.885" fill="#d6d6d6" stroke="#000" stroke-miterlimit="10"/>
    <rect x="331.717" y="63.524" width="29.885" height="29.885" fill="#d6d6d6" stroke="#000" stroke-miterlimit="10"/>
  </g>
  <g>
    <path d="M48.424,80.425l-.891.062c-.636.042-1.128.18-1.477.414-.35.234-.523.576-.523,1.023,0,.292.075.537.227.734.15.198.361.349.633.453.271.104.578.156.922.156.489,0,.911-.096,1.266-.289.354-.192.625-.448.812-.766.188-.317.281-.659.281-1.023v-2.641c0-.364-.07-.674-.211-.93-.141-.255-.354-.448-.641-.578-.287-.13-.644-.195-1.07-.195-.511,0-.93.104-1.258.312-.328.208-.545.484-.648.828h-1.406c.062-.458.242-.862.539-1.211.297-.349.689-.62,1.18-.812.489-.192,1.041-.289,1.656-.289.489,0,.969.073,1.438.219.469.146.877.44,1.227.883.349.443.523,1.076.523,1.898v5.594h-1.328v-1.156h-.062c-.104.219-.264.43-.477.633-.214.203-.495.375-.844.516-.35.141-.753.211-1.211.211-.542,0-1.031-.104-1.469-.312s-.784-.51-1.039-.906c-.256-.396-.383-.859-.383-1.391,0-.885.302-1.508.906-1.867.604-.359,1.364-.57,2.281-.633.104-.01.604-.042,1.5-.094l.891-.031.016,1.094c-.094,0-.547.031-1.359.094Z" stroke-width="0"/>
    <path d="M78.953,77.12c-.287-.203-.67-.305-1.148-.305-.344,0-.651.055-.922.164-.271.109-.484.263-.641.461-.156.198-.234.417-.234.656,0,.281.119.521.359.719.239.198.604.354,1.094.469l1.266.312c.76.177,1.328.456,1.703.836.375.38.562.867.562,1.461,0,.49-.131.927-.391,1.312-.261.386-.641.688-1.141.906s-1.1.328-1.797.328c-.636,0-1.183-.091-1.641-.273-.459-.182-.826-.453-1.102-.812-.276-.359-.451-.794-.523-1.305h1.406c.083.406.275.711.578.914.302.203.719.305,1.25.305.396,0,.742-.052,1.039-.156.297-.104.525-.255.688-.453.161-.198.242-.427.242-.688,0-.302-.112-.555-.336-.758-.225-.203-.576-.356-1.055-.461l-1.281-.297c-.74-.177-1.303-.461-1.688-.852-.386-.391-.578-.867-.578-1.43,0-.479.133-.909.398-1.289.266-.38.635-.677,1.109-.891.474-.213,1.018-.32,1.633-.32.572,0,1.078.097,1.516.289.438.193.786.464,1.047.812.26.349.416.753.469,1.211h-1.312c-.094-.375-.284-.664-.57-.867Z" stroke-width="0"/>
    <path d="M105.278,83.901c-.547-.359-.975-.872-1.281-1.539-.308-.667-.461-1.438-.461-2.312,0-.885.153-1.659.461-2.32.307-.661.734-1.169,1.281-1.523.547-.354,1.174-.531,1.883-.531.5,0,.914.081,1.242.242.328.162.57.336.727.523s.317.417.484.688h.094v-4.172h1.359v11.312h-1.312v-1.297h-.141c-.178.271-.344.5-.5.688s-.398.365-.727.531-.742.25-1.242.25c-.698,0-1.32-.18-1.867-.539ZM108.645,82.831c.364-.271.641-.648.828-1.133s.281-1.044.281-1.68-.092-1.188-.273-1.656c-.183-.469-.456-.833-.82-1.094-.365-.26-.808-.391-1.328-.391s-.964.136-1.328.406c-.365.271-.641.644-.828,1.117-.188.474-.281,1.013-.281,1.617,0,.615.094,1.164.281,1.648s.463.867.828,1.148c.364.281.807.422,1.328.422.51,0,.947-.135,1.312-.406Z" stroke-width="0"/>
    <path d="M139.665,76.909h-4.594v-1.125h4.594v1.125ZM136.727,73.448c.198-.328.479-.581.844-.758.365-.177.792-.266,1.281-.266.156,0,.323.008.5.023.178.016.344.039.5.07v1.203c-.25-.042-.484-.062-.703-.062-.469,0-.812.102-1.031.305s-.328.523-.328.961v9.344h-1.359v-9.641c0-.458.1-.852.297-1.18Z" stroke-width="0"/>
    <path d="M165.459,87.339c-.527-.193-.943-.474-1.25-.844-.309-.37-.488-.815-.539-1.336h1.406c.094.427.33.75.711.969.379.219.871.328,1.477.328.75,0,1.328-.167,1.734-.5.406-.333.609-.844.609-1.531v-1.719h-.109c-.146.25-.303.472-.469.664-.168.193-.418.37-.75.531-.334.162-.75.242-1.25.242-.688,0-1.305-.169-1.852-.508-.547-.338-.977-.828-1.289-1.469s-.469-1.393-.469-2.258c0-.854.152-1.602.461-2.242.307-.641.734-1.133,1.281-1.477s1.174-.516,1.883-.516c.5,0,.914.081,1.242.242.328.162.564.326.711.492.145.167.322.406.531.719h.109v-1.344h1.312v8.719c0,.698-.16,1.281-.477,1.75-.318.469-.754.815-1.305,1.039-.553.224-1.188.336-1.906.336-.678,0-1.279-.097-1.805-.289ZM168.53,82.581c.363-.239.641-.581.828-1.023.188-.442.281-.977.281-1.602,0-.614-.094-1.153-.281-1.617-.188-.463-.461-.823-.82-1.078-.359-.255-.801-.383-1.32-.383s-.965.136-1.328.406c-.365.271-.641.638-.828,1.102-.188.464-.281.987-.281,1.57,0,.594.094,1.115.281,1.562.188.448.463.797.828,1.047.363.25.807.375,1.328.375.51,0,.947-.12,1.312-.359Z" stroke-width="0"/>
    <path d="M195.198,84.268h-1.344v-11.312h1.344v4.156h.109c.209-.458.516-.812.922-1.062s.933-.375,1.578-.375c.594,0,1.107.117,1.539.352.433.234.766.591,1,1.07.234.479.352,1.073.352,1.781v5.391h-1.344v-5.297c0-.438-.078-.815-.234-1.133-.156-.317-.38-.557-.672-.719-.291-.161-.641-.242-1.047-.242-.427,0-.805.089-1.133.266-.328.177-.588.44-.781.789-.192.349-.289.763-.289,1.242v5.094Z" stroke-width="0"/>
    <path d="M227.851,75.784v9.094c0,.531-.091.989-.273,1.375-.183.385-.458.682-.828.891-.37.208-.825.312-1.367.312h-.281v-1.25h.266c.261,0,.474-.052.641-.156.167-.104.292-.255.375-.453.083-.198.125-.438.125-.719v-9.094h1.344ZM226.695,74.261c-.146-.078-.261-.188-.344-.328s-.125-.289-.125-.445c0-.167.042-.317.125-.453.083-.135.198-.242.344-.32s.302-.117.469-.117c.177,0,.339.039.484.117s.261.185.344.32c.083.136.125.287.125.453,0,.156-.042.305-.125.445s-.198.25-.344.328-.308.117-.484.117c-.167,0-.323-.039-.469-.117Z" stroke-width="0"/>
    <path d="M254.012,72.956h1.344v11.312h-1.344v-11.312ZM255.247,79.534h.266l3.672-3.75h1.656l-3.953,4.016h-.125l-1.5,1.391-.016-1.656ZM256.122,80.096l.938-.938,4.047,5.109h-1.703l-3.281-4.172Z" stroke-width="0"/>
    <path d="M287.642,84.268h-1.344v-11.312h1.344v11.312Z" stroke-width="0"/>
  </g>
  <g>
    <rect x="51.285" y="93.409" width="29.885" height="29.885" fill="#fff" stroke="#000" stroke-miterlimit="10"/>
    <rect x="81.17" y="93.409" width="29.885" height="29.885" fill="#fff" stroke="#000" stroke-miterlimit="10"/>
    <rect x="111.055" y="93.409" width="29.885" height="29.885" fill="#fff" stroke="#000" stroke-miterlimit="10"/>
    <rect x="140.941" y="93.409" width="29.885" height="29.885" fill="#fff" stroke="#000" stroke-miterlimit="10"/>
    <rect x="170.826" y="93.409" width="29.885" height="29.885" fill="#fff" stroke="#000" stroke-miterlimit="10"/>
    <rect x="200.711" y="93.409" width="29.885" height="29.885" fill="#fff" stroke="#000" stroke-miterlimit="10"/>
    <rect x="230.596" y="93.409" width="29.885" height="29.885" fill="#fff" stroke="#000" stroke-miterlimit="10"/>
    <rect x="260.481" y="93.409" width="29.885" height="29.885" fill="#d6d6d6" stroke="#000" stroke-miterlimit="10"/>
    <rect x="290.366" y="93.409" width="29.885" height="29.885" fill="#d6d6d6" stroke="#000" stroke-miterlimit="10"/>
    <rect x="320.251" y="93.409" width="29.885" height="29.885" fill="#d6d6d6" stroke="#000" stroke-miterlimit="10"/>
  </g>
  <g>
    <path d="M62.944,113.138l4.781-6.141v-.094h-4.625v-1.234h6.359v1.062l-4.641,6.094v.094h4.797v1.234h-6.672v-1.016Z" stroke-width="0"/>
    <path d="M96.105,109.122l2.016-3.453h1.547l-2.734,4.234,2.734,4.25h-1.531l-2.031-3.281-2,3.281h-1.547l2.672-4.25-2.672-4.234h1.547l2,3.453Z" stroke-width="0"/>
    <path d="M124.266,113.763c-.589-.375-1.039-.893-1.352-1.555-.312-.661-.469-1.414-.469-2.258,0-.854.161-1.614.484-2.281.323-.666.773-1.185,1.352-1.555.578-.369,1.247-.555,2.008-.555.604,0,1.148.109,1.633.328s.878.531,1.18.938.489.875.562,1.406h-1.344c-.062-.271-.183-.518-.359-.742-.177-.224-.403-.403-.68-.539-.276-.135-.597-.203-.961-.203-.5,0-.94.131-1.32.391-.38.261-.677.628-.891,1.102-.214.475-.32,1.029-.32,1.664,0,.646.104,1.211.312,1.695s.503.859.883,1.125.825.398,1.336.398c.333,0,.638-.057.914-.172.276-.114.508-.283.695-.508.188-.224.317-.486.391-.789h1.344c-.073.511-.255.967-.547,1.367-.292.401-.677.719-1.156.953s-1.026.352-1.641.352c-.781,0-1.466-.188-2.055-.562Z" stroke-width="0"/>
    <g>
      <path d="M146.24,105.794c.38-1.239.935-2.385,1.664-3.438h1.188c-.354.521-.688,1.195-1,2.023s-.565,1.722-.758,2.68c-.192.959-.289,1.886-.289,2.781s.097,1.826.289,2.789c.192.964.445,1.859.758,2.688s.646,1.503,1,2.023h-1.188c-.729-1.073-1.284-2.229-1.664-3.469s-.575-2.583-.586-4.031c.011-1.458.206-2.807.586-4.047Z" stroke-width="0"/>
      <path d="M150.091,105.669h1.422l1.812,6.469h.078l1.797-6.469h1.438l1.766,6.438h.094l1.812-6.438h1.406l-2.578,8.484h-1.328l-1.844-6.469h-.125l-1.828,6.469h-1.344l-2.578-8.484Z" stroke-width="0"/>
      <path d="M166.154,109.841c-.011,1.448-.206,2.792-.586,4.031s-.935,2.396-1.664,3.469h-1.188c.354-.521.688-1.195,1-2.023s.565-1.724.758-2.688c.192-.963.289-1.893.289-2.789s-.097-1.822-.289-2.781c-.192-.958-.445-1.852-.758-2.68s-.646-1.502-1-2.023h1.188c.729,1.053,1.284,2.198,1.664,3.438.38,1.24.575,2.589.586,4.047Z" stroke-width="0"/>
    </g>
    <path d="M182.323,102.841h1.344v4.172h.109c.208-.312.38-.552.516-.719.135-.166.367-.33.695-.492.328-.161.742-.242,1.242-.242.708,0,1.336.178,1.883.531.547.354.974.862,1.281,1.523.307.662.461,1.436.461,2.32,0,.875-.154,1.646-.461,2.312-.308.667-.732,1.18-1.273,1.539-.542.359-1.167.539-1.875.539-.49,0-.898-.083-1.227-.25-.328-.166-.573-.344-.734-.531-.162-.188-.331-.416-.508-.688h-.156v1.297h-1.297v-11.312ZM183.917,111.583c.188.484.463.862.828,1.133.364.271.797.406,1.297.406.521,0,.966-.141,1.336-.422.369-.281.648-.664.836-1.148s.281-1.033.281-1.648c0-.604-.092-1.143-.273-1.617-.183-.474-.459-.846-.828-1.117-.37-.271-.82-.406-1.352-.406-.511,0-.945.131-1.305.391-.359.261-.633.625-.82,1.094s-.281,1.021-.281,1.656.094,1.195.281,1.68Z" stroke-width="0"/>
    <path d="M213.664,114.153h-1.344v-8.484h1.297v1.328h.109c.219-.458.531-.812.938-1.062s.922-.375,1.547-.375c.583,0,1.089.117,1.516.352s.758.592.992,1.07c.234.479.352,1.073.352,1.781v5.391h-1.344v-5.297c0-.438-.075-.812-.227-1.125s-.37-.552-.656-.719c-.286-.166-.633-.25-1.039-.25-.417,0-.786.089-1.109.266-.323.178-.575.44-.758.789-.183.35-.273.764-.273,1.242v5.094Z" stroke-width="0"/>
    <path d="M239.997,105.669h1.297v1.328h.109c.188-.458.477-.812.867-1.062s.861-.375,1.414-.375c.364,0,.692.055.984.164.291.109.544.271.758.484.213.214.388.477.523.789h.094c.146-.302.341-.56.586-.773.244-.213.533-.377.867-.492.333-.114.697-.172,1.094-.172.521,0,.974.107,1.359.32.385.214.688.537.906.969.219.433.328.977.328,1.633v5.672h-1.344v-5.656c0-.594-.162-1.031-.484-1.312-.323-.281-.734-.422-1.234-.422-.386,0-.719.081-1,.242-.281.162-.495.383-.641.664-.146.281-.219.604-.219.969v5.516h-1.359v-5.797c0-.312-.07-.591-.211-.836-.141-.244-.336-.432-.586-.562-.25-.13-.537-.195-.859-.195-.334,0-.646.089-.938.266-.292.178-.526.425-.703.742-.178.318-.266.68-.266,1.086v5.297h-1.344v-8.484Z" stroke-width="0"/>
  </g>
</svg>