<?xml version="1.0" encoding="UTF-8"?>
<svg id="a" data-name="레이어 1" xmlns="http://www.w3.org/2000/svg" width="424.354" height="127.047" viewBox="0 0 424.354 127.047">
  <g>
    <rect x="2.982" y="3.753" width="29.885" height="29.885" fill="#d6d6d6" stroke="#000" stroke-miterlimit="10"/>
    <rect x="32.867" y="3.753" width="29.885" height="29.885" fill="#fff" stroke="#000" stroke-miterlimit="10"/>
    <rect x="62.752" y="3.753" width="29.885" height="29.885" fill="#fff" stroke="#000" stroke-miterlimit="10"/>
    <rect x="92.637" y="3.753" width="29.885" height="29.885" fill="#fff" stroke="#000" stroke-miterlimit="10"/>
    <rect x="122.522" y="3.753" width="29.885" height="29.885" fill="#fff" stroke="#000" stroke-miterlimit="10"/>
    <rect x="152.407" y="3.753" width="29.885" height="29.885" fill="#fff" stroke="#000" stroke-miterlimit="10"/>
    <rect x="182.292" y="3.753" width="29.885" height="29.885" fill="#fff" stroke="#000" stroke-miterlimit="10"/>
    <rect x="212.177" y="3.753" width="29.885" height="29.885" fill="#fff" stroke="#000" stroke-miterlimit="10"/>
    <rect x="242.062" y="3.753" width="29.885" height="29.885" fill="#fff" stroke="#000" stroke-miterlimit="10"/>
    <rect x="271.947" y="3.753" width="29.885" height="29.885" fill="#fff" stroke="#000" stroke-miterlimit="10"/>
    <rect x="301.832" y="3.753" width="29.885" height="29.885" fill="#fff" stroke="#000" stroke-miterlimit="10"/>
    <rect x="331.717" y="3.753" width="29.885" height="29.885" fill="#d6d6d6" stroke="#000" stroke-miterlimit="10"/>
    <rect x="361.603" y="3.753" width="29.885" height="29.885" fill="#d6d6d6" stroke="#000" stroke-miterlimit="10"/>
    <rect x="391.488" y="3.753" width="29.885" height="29.885" fill="#d6d6d6" stroke="#000" stroke-miterlimit="10"/>
  </g>
  <g>
    <rect x="17.924" y="33.639" width="29.885" height="29.885" fill="#fff" stroke="#000" stroke-miterlimit="10"/>
    <rect x="47.809" y="33.639" width="29.885" height="29.885" fill="#fff" stroke="#000" stroke-miterlimit="10"/>
    <rect x="77.694" y="33.639" width="29.885" height="29.885" fill="#fff" stroke="#000" stroke-miterlimit="10"/>
    <rect x="107.58" y="33.639" width="29.885" height="29.885" fill="#fff" stroke="#000" stroke-miterlimit="10"/>
    <rect x="137.465" y="33.639" width="29.885" height="29.885" fill="#fff" stroke="#000" stroke-miterlimit="10"/>
    <rect x="167.35" y="33.639" width="29.885" height="29.885" fill="#fff" stroke="#000" stroke-miterlimit="10"/>
    <rect x="197.235" y="33.639" width="29.885" height="29.885" fill="#fff" stroke="#000" stroke-miterlimit="10"/>
    <rect x="227.12" y="33.639" width="29.885" height="29.885" fill="#fff" stroke="#000" stroke-miterlimit="10"/>
    <rect x="257.005" y="33.639" width="29.885" height="29.885" fill="#fff" stroke="#000" stroke-miterlimit="10"/>
    <rect x="286.89" y="33.639" width="29.885" height="29.885" fill="#fff" stroke="#000" stroke-miterlimit="10"/>
    <rect x="316.775" y="33.639" width="29.885" height="29.885" fill="#d6d6d6" stroke="#000" stroke-miterlimit="10"/>
    <rect x="346.66" y="33.639" width="29.885" height="29.885" fill="#d6d6d6" stroke="#000" stroke-miterlimit="10"/>
  </g>
  <g>
    <path d="M60.072,53.711c-.448-.448-.672-.987-.672-1.616v-2.288c0-.629.224-1.168.672-1.616.448-.448.986-.672,1.616-.672s1.168.224,1.615.672c.448.448.673.987.673,1.616l-1.152,2.288h-1.136l1.136-2.288c0-.309-.112-.576-.336-.8-.225-.224-.494-.336-.809-.336s-.581.112-.8.336-.333.491-.344.8v2.288c.011.32.125.592.344.816.219.224.488.336.809.336h2.288c.309-.01.575-.125.8-.344.224-.219.336-.488.336-.808v-4.576c0-.31-.112-.576-.336-.8-.225-.224-.491-.336-.8-.336l-2.288,1.136c-.63,0-1.168-.222-1.616-.664-.448-.443-.672-.979-.672-1.608h1.136c.011.31.125.576.344.8s.488.336.809.336l2.288-1.136c.629,0,1.168.222,1.615.664.448.443.672.979.672,1.608v4.576c0,.629-.224,1.168-.672,1.616-.447.448-.986.672-1.615.672h-2.288c-.63,0-1.168-.224-1.616-.672Z" stroke-width="0"/>
    <path d="M30.187,53.711c-.448-.448-.672-.987-.672-1.616v-2.288c0-.629.224-1.168.672-1.616.448-.448.986-.672,1.616-.672s1.168.224,1.615.672c.448.448.673.987.673,1.616l-1.152,2.288h-1.136l1.136-2.288c0-.309-.112-.576-.336-.8-.225-.224-.494-.336-.809-.336s-.581.112-.8.336-.333.491-.344.8v2.288c.011.32.125.592.344.816.219.224.488.336.809.336h2.288c.309-.01.575-.125.8-.344.224-.219.336-.488.336-.808v-4.576c0-.31-.112-.576-.336-.8-.225-.224-.491-.336-.8-.336l-2.288,1.136c-.63,0-1.168-.222-1.616-.664-.448-.443-.672-.979-.672-1.608h1.136c.011.31.125.576.344.8s.488.336.809.336l2.288-1.136c.629,0,1.168.222,1.615.664.448.443.672.979.672,1.608v4.576c0,.629-.224,1.168-.672,1.616-.447.448-.986.672-1.615.672h-2.288c-.63,0-1.168-.224-1.616-.672Z" stroke-width="0"/>
    <path d="M89.96,53.711c-.448-.448-.672-.987-.672-1.616s.224-1.168.672-1.616c.448-.448.986-.672,1.616-.672s1.168.224,1.616.672c.447.448.672.986.672,1.616v1.152c.309-.01.575-.125.8-.344.224-.219.336-.488.336-.808v-2.288c0-.309-.112-.576-.336-.8-.225-.224-.491-.336-.8-.336h-2.288c-.32,0-.59.112-.809.336s-.333.491-.344.8h-1.136c0-.629.224-1.168.672-1.616.448-.448.986-.672,1.616-.672h2.288c.629,0,1.168.224,1.615.672.448.448.673.987.673,1.616v2.288c0,.629-.225,1.168-.673,1.616-.447.448-.986.672-1.615.672h-2.288c-.63,0-1.168-.224-1.616-.672ZM92.712,52.095c0-.309-.112-.576-.336-.8s-.493-.336-.808-.336-.582.112-.801.336-.333.491-.344.8c.011.32.125.592.344.816.219.224.488.336.809.336h1.136v-1.152Z" stroke-width="0"/>
    <path d="M119.863,53.711c-.448-.448-.672-.987-.672-1.616v-2.288c0-.629.224-1.168.672-1.616.448-.448.986-.672,1.616-.672s1.168.224,1.615.672c.448.448.673.987.673,1.616l-1.152,2.288c.011.32.125.592.344.816.219.224.488.336.809.336.309-.01.575-.125.8-.344.224-.219.336-.488.336-.808v-4.576c0-.31-.112-.576-.336-.8-.225-.224-.491-.336-.8-.336l-2.288,1.136c-.63,0-1.168-.222-1.616-.664-.448-.443-.672-.979-.672-1.608h1.136c.011.31.125.576.344.8s.488.336.809.336l2.288-1.136c.629,0,1.168.222,1.615.664.448.443.672.979.672,1.608v4.576c0,.629-.224,1.168-.672,1.616-.447.448-.986.672-1.615.672s-1.169-.224-1.616-.672c-.448-.448-.672-.987-.672-1.616l1.136-2.288c0-.309-.112-.576-.336-.8-.225-.224-.494-.336-.809-.336s-.581.112-.8.336-.333.491-.344.8v2.288c.011.32.125.592.344.816.219.224.488.336.809.336v1.136c-.63,0-1.168-.224-1.616-.672Z" stroke-width="0"/>
    <path d="M149.766,53.711c-.448-.448-.672-.987-.672-1.616v-4.576c0-.629.224-1.166.672-1.608.448-.442.986-.664,1.616-.664h2.288c.629,0,1.168.222,1.616.664.447.443.672.979.672,1.608h-1.152c0-.31-.112-.576-.336-.8s-.49-.336-.8-.336h-2.288c-.32,0-.59.112-.808.336-.219.224-.334.491-.345.8v4.576c.011.32.126.592.345.816.218.224.487.336.808.336h2.288c.31-.01.576-.125.8-.344s.336-.488.336-.808v-2.288c0-.309-.112-.576-.336-.8s-.493-.336-.808-.336-.582.112-.8.336c-.219.224-.334.491-.345.8l1.152,2.288h-1.152l-1.136-2.288c0-.629.224-1.168.672-1.616.448-.448.986-.672,1.616-.672s1.168.224,1.616.672c.447.448.672.987.672,1.616v2.288c0,.629-.225,1.168-.672,1.616-.448.448-.987.672-1.616.672h-2.288c-.63,0-1.168-.224-1.616-.672Z" stroke-width="0"/>
    <path d="M179.67,53.711c-.448-.448-.672-.987-.672-1.616v-4.576c0-.629.224-1.166.672-1.608.448-.442.986-.664,1.616-.664l2.288,1.136c.31,0,.576-.112.8-.336s.336-.491.336-.8h1.152c0,.63-.225,1.166-.672,1.608-.448.442-.987.664-1.616.664l-2.288-1.136c-.32,0-.59.112-.808.336-.219.224-.334.491-.345.8v4.576c.011.32.126.592.345.816.218.224.487.336.808.336h2.288c.31-.01.576-.125.8-.344s.336-.488.336-.808v-2.288c0-.309-.112-.576-.336-.8s-.493-.336-.808-.336-.582.112-.8.336c-.219.224-.334.491-.345.8l1.152,2.288h-1.152l-1.136-2.288c0-.629.224-1.168.672-1.616.448-.448.986-.672,1.616-.672s1.168.224,1.616.672c.447.448.672.987.672,1.616v2.288c0,.629-.225,1.168-.672,1.616-.448.448-.987.672-1.616.672h-2.288c-.63,0-1.168-.224-1.616-.672Z" stroke-width="0"/>
    <path d="M209.574,53.711c-.448-.448-.672-.987-.672-1.616v-2.288c0-.629.224-1.168.672-1.616.447-.448.986-.672,1.615-.672h2.288c.63,0,1.168.224,1.616.672.448.448.672.987.672,1.616s-.224,1.168-.672,1.616c-.448.448-.986.672-1.616.672s-1.168-.224-1.615-.672c-.448-.448-.673-.986-.673-1.616v-1.136c-.319,0-.589.112-.808.336s-.333.491-.344.8v2.288c.011.32.125.592.344.816.219.224.488.336.808.336h2.288c.31-.01.576-.125.801-.344.224-.219.336-.488.336-.808h1.151c0,.629-.224,1.168-.672,1.616-.448.448-.986.672-1.616.672h-2.288c-.629,0-1.168-.224-1.615-.672ZM214.278,50.615c.224-.218.336-.485.336-.8s-.112-.584-.336-.808c-.225-.224-.491-.336-.801-.336h-1.151v1.136c.011.32.125.592.344.816.219.224.488.336.808.336.31-.011.576-.125.801-.344Z" stroke-width="0"/>
    <path d="M239.437,53.711c-.448-.448-.672-.987-.672-1.616h1.136c.011.32.125.592.344.816.219.224.488.336.808.336h2.289c.309-.01.575-.125.799-.344.225-.219.336-.488.336-.808v-2.288c0-.309-.111-.576-.336-.8-.224-.224-.49-.336-.799-.336v1.136c0,.63-.225,1.168-.672,1.616-.449.448-.987.672-1.617.672s-1.168-.224-1.615-.672c-.448-.448-.672-.986-.672-1.616s.224-1.168.672-1.616c.447-.448.986-.672,1.615-.672h2.289c.629,0,1.168.224,1.615.672.448.448.672.987.672,1.616v2.288c0,.629-.224,1.168-.672,1.616-.447.448-.986.672-1.615.672h-2.289c-.629,0-1.168-.224-1.615-.672ZM241.853,50.615c.224-.218.336-.488.336-.808v-1.136h-1.137c-.319,0-.589.112-.808.336s-.333.491-.344.8c.011.32.125.592.344.816.219.224.488.336.808.336.31-.011.576-.125.801-.344Z" stroke-width="0"/>
    <path d="M269.356,53.711c-.448-.448-.672-.987-.672-1.616v-2.288c0-.629.224-1.168.672-1.616.448-.448.986-.672,1.616-.672h2.287c.63,0,1.168.224,1.617.672.447.448.672.987.672,1.616h-1.152c0-.309-.112-.576-.336-.8-.225-.224-.49-.336-.801-.336h-2.287c-.32,0-.59.112-.809.336s-.333.491-.344.8v2.288c.011.32.125.592.344.816.219.224.488.336.809.336v-1.152c0-.629.224-1.168.672-1.616.447-.448.986-.672,1.615-.672s1.168.224,1.617.672c.447.448.672.986.672,1.616s-.225,1.168-.672,1.616c-.449.448-.987.672-1.617.672h-2.287c-.63,0-1.168-.224-1.616-.672ZM274.06,52.903c.224-.219.336-.485.336-.8s-.112-.584-.336-.808c-.225-.224-.494-.336-.809-.336s-.581.112-.799.336c-.219.224-.334.491-.345.8v1.152h1.151c.311-.01.576-.125.801-.344Z" stroke-width="0"/>
    <path d="M298.572,52.095v-4.576c0-.629.224-1.166.672-1.608.447-.442.986-.664,1.615-.664h2.289c.629,0,1.168.222,1.615.664.448.443.672.979.672,1.608h-1.151c0-.31-.112-.576-.336-.8s-.491-.336-.8-.336h-2.289c-.319,0-.589.112-.807.336-.219.224-.334.491-.345.8v4.576c.011.32.126.592.345.816.218.224.487.336.807.336.311-.01.576-.125.801-.344s.336-.488.336-.808l-1.137-2.288c0-.629.225-1.168.673-1.616.448-.448.986-.672,1.616-.672s1.168.224,1.615.672c.448.448.672.987.672,1.616v2.288c0,.629-.224,1.168-.672,1.616-.447.448-.986.672-1.615.672v-1.136c.309-.01.576-.125.8-.344s.336-.488.336-.808v-2.288c0-.309-.112-.576-.336-.8s-.493-.336-.808-.336-.582.112-.801.336-.333.491-.344.8l1.152,2.288c0,.629-.225,1.168-.672,1.616-.448.448-.987.672-1.617.672s-1.168-.224-1.615-.672c-.448-.448-.672-.987-.672-1.616Z" stroke-width="0"/>
  </g>
  <g>
    <path d="M74.708,23.826c-.448-.448-.672-.987-.672-1.616l1.136-2.288c0-.309-.109-.576-.328-.8s-.487-.336-.808-.336v-1.152c.629,0,1.168.224,1.616.672.448.448.672.987.672,1.616l-1.152,2.288c.011.32.126.592.345.816.218.224.487.336.808.336v-1.152l1.136-2.288c0-.309-.111-.576-.336-.8-.224-.224-.49-.336-.8-.336v-1.152c.629,0,1.168.224,1.616.672.447.448.672.987.672,1.616l-1.152,2.288v1.152h1.152c.31-.01.576-.125.8-.344s.336-.488.336-.808v-2.288c0-.309-.112-.576-.336-.8s-.49-.336-.8-.336v-1.152c.629,0,1.168.224,1.616.672.447.448.672.987.672,1.616v2.288c0,.629-.225,1.168-.672,1.616-.448.448-.987.672-1.616.672h-2.288c-.63,0-1.168-.224-1.616-.672Z" stroke-width="0"/>
    <path d="M44.823,23.826c-.448-.448-.672-.987-.672-1.616l1.136-2.288c0-.309-.109-.576-.328-.8s-.487-.336-.808-.336v-1.152c.629,0,1.168.224,1.616.672.448.448.672.987.672,1.616l-1.152,2.288c.011.32.126.592.345.816.218.224.487.336.808.336h2.288c.31-.01.576-.125.8-.344s.336-.488.336-.808v-2.288c0-.309-.112-.576-.336-.8s-.493-.336-.808-.336-.582.112-.801.336-.333.491-.344.8c.011.32.125.592.344.816.219.224.488.336.809.336v1.136c-.63,0-1.168-.224-1.616-.672-.448-.448-.672-.986-.672-1.616s.224-1.168.672-1.616c.448-.448.986-.672,1.616-.672s1.168.224,1.616.672c.447.448.672.987.672,1.616v2.288c0,.629-.225,1.168-.672,1.616-.448.448-.987.672-1.616.672h-2.288c-.63,0-1.168-.224-1.616-.672Z" stroke-width="0"/>
    <path d="M104.659,23.826c-.448-.448-.672-.987-.672-1.616l1.136-2.288c0-.309-.109-.576-.328-.8s-.488-.336-.808-.336v-1.152c.629,0,1.168.224,1.616.672.447.448.672.987.672,1.616l-1.152,2.288c.011.32.125.592.344.816.219.224.488.336.809.336v-1.152l1.136-2.288v-1.136h-1.136v-1.152h2.287c.63,0,1.168.224,1.617.672.447.448.672.987.672,1.616l-1.152,2.288c0,.32.111.592.336.816.225.224.496.336.816.336v1.136c-.641,0-1.182-.224-1.625-.672-.442-.448-.664-.987-.664-1.616l1.137-2.288c0-.309-.112-.576-.336-.8-.225-.224-.49-.336-.801-.336v1.136l-1.151,2.288v1.152h1.151v1.136h-2.287c-.63,0-1.168-.224-1.616-.672Z" stroke-width="0"/>
    <path d="M134.482,23.826c-.447-.448-.672-.987-.672-1.616l1.137-2.288-1.137-2.288c0-.629.225-1.166.672-1.608.448-.442.986-.664,1.616-.664h2.288c.629,0,1.168.222,1.615.664.449.443.673.979.673,1.608h-1.152c0-.31-.112-.576-.336-.8s-.491-.336-.8-.336h-2.288c-.319,0-.589.112-.808.336s-.334.491-.344.8l1.151,2.288-1.151,2.288c.01.32.125.592.344.816.219.224.488.336.808.336h2.288c.309-.01.576-.125.8-.344s.336-.488.336-.808v-2.288c0-.309-.112-.576-.336-.8s-.493-.336-.808-.336-.582.112-.801.336-.333.491-.344.8c.011.32.125.592.344.816.219.224.488.336.809.336v1.136c-.63,0-1.168-.224-1.616-.672-.448-.448-.672-.986-.672-1.616s.224-1.168.672-1.616c.448-.448.986-.672,1.616-.672s1.168.224,1.615.672c.449.448.673.987.673,1.616v2.288c0,.629-.224,1.168-.673,1.616-.447.448-.986.672-1.615.672h-2.288c-.63,0-1.168-.224-1.616-.672Z" stroke-width="0"/>
    <path d="M164.378,23.826c-.448-.448-.672-.987-.672-1.616l1.136-2.288-1.136-2.288c0-.629.224-1.166.672-1.608.448-.442.987-.664,1.616-.664h2.288c.629,0,1.168.222,1.616.664.447.443.672.979.672,1.608h-1.152c0-.31-.111-.576-.336-.8s-.49-.336-.8-.336h-2.288c-.32,0-.59.112-.809.336s-.333.491-.344.8l1.152,2.288-1.152,2.288c.011.32.125.592.344.816.219.224.488.336.809.336v-1.152l1.136-2.288c0-.309-.112-.576-.336-.8s-.491-.336-.8-.336v-1.152c.629,0,1.168.224,1.615.672.449.448.673.987.673,1.616l-1.152,2.288v1.152h1.152c.31-.01.575-.125.8-.344s.336-.488.336-.808v-2.288c0-.309-.111-.576-.336-.8s-.49-.336-.8-.336v-1.152c.629,0,1.168.224,1.616.672.447.448.672.987.672,1.616v2.288c0,.629-.225,1.168-.672,1.616-.448.448-.987.672-1.616.672h-2.288c-.629,0-1.168-.224-1.616-.672Z" stroke-width="0"/>
    <path d="M194.321,23.826c-.448-.448-.672-.987-.672-1.616l1.136-2.288-1.136-2.288c0-.629.224-1.166.672-1.608.448-.442.987-.664,1.616-.664h2.288c.629,0,1.168.222,1.616.664.447.443.672.979.672,1.608h-1.152c0-.31-.111-.576-.336-.8s-.49-.336-.8-.336h-2.288c-.32,0-.59.112-.809.336s-.333.491-.344.8l1.152,2.288-1.152,2.288c.011.32.125.592.344.816.219.224.488.336.809.336v-1.152l1.136-2.288v-1.136h-1.136v-1.152h2.288c.629,0,1.168.224,1.616.672.447.448.672.987.672,1.616l-1.152,2.288c0,.32.112.592.336.816.225.224.496.336.816.336v1.136c-.641,0-1.182-.224-1.624-.672-.442-.448-.664-.987-.664-1.616l1.136-2.288c0-.309-.111-.576-.336-.8s-.49-.336-.8-.336v1.136l-1.152,2.288v1.152h1.152v1.136h-2.288c-.629,0-1.168-.224-1.616-.672Z" stroke-width="0"/>
    <path d="M224.177,23.826c-.448-.448-.672-.987-.672-1.616l1.136-2.288-1.136-2.288c0-.629.224-1.166.672-1.608.447-.442.986-.664,1.615-.664l2.289,1.136c.309,0,.575-.112.799-.336.225-.224.336-.491.336-.8h1.152c0,.63-.224,1.166-.672,1.608-.447.442-.986.664-1.615.664l-2.289-1.136c-.319,0-.589.112-.808.336s-.333.491-.344.8l1.151,2.288-1.151,2.288c.011.32.125.592.344.816.219.224.488.336.808.336h2.289c.309-.01.575-.125.799-.344.225-.219.336-.488.336-.808v-2.288c0-.309-.111-.576-.336-.8-.224-.224-.493-.336-.808-.336s-.581.112-.8.336-.334.491-.344.8c.01.32.125.592.344.816.219.224.488.336.809.336v1.136c-.631,0-1.168-.224-1.617-.672-.447-.448-.672-.986-.672-1.616s.225-1.168.672-1.616c.449-.448.986-.672,1.617-.672s1.168.224,1.615.672c.448.448.672.987.672,1.616v2.288c0,.629-.224,1.168-.672,1.616-.447.448-.986.672-1.615.672h-2.289c-.629,0-1.168-.224-1.615-.672Z" stroke-width="0"/>
    <path d="M254.072,23.826c-.447-.448-.672-.987-.672-1.616l1.137-2.288-1.137-2.288c0-.629.225-1.166.672-1.608.448-.442.987-.664,1.616-.664l2.288,1.136c.31,0,.576-.112.8-.336.225-.224.336-.491.336-.8h1.152c0,.63-.224,1.166-.672,1.608-.448.442-.987.664-1.616.664l-2.288-1.136c-.319,0-.589.112-.808.336s-.334.491-.344.8l1.151,2.288-1.151,2.288c.01.32.125.592.344.816.219.224.488.336.808.336v-1.152l1.136-2.288c0-.309-.111-.576-.336-.8-.224-.224-.49-.336-.8-.336v-1.152c.63,0,1.168.224,1.616.672.448.448.672.987.672,1.616l-1.152,2.288v1.152h1.152c.31-.01.576-.125.8-.344.225-.219.336-.488.336-.808v-2.288c0-.309-.111-.576-.336-.8-.224-.224-.49-.336-.8-.336v-1.152c.629,0,1.168.224,1.616.672.448.448.672.987.672,1.616v2.288c0,.629-.224,1.168-.672,1.616-.448.448-.987.672-1.616.672h-2.288c-.629,0-1.168-.224-1.616-.672Z" stroke-width="0"/>
    <path d="M284.015,23.826c-.447-.448-.672-.987-.672-1.616l1.137-2.288-1.137-2.288c0-.629.225-1.166.672-1.608.448-.442.987-.664,1.616-.664l2.288,1.136c.31,0,.576-.112.8-.336.225-.224.336-.491.336-.8h1.152c0,.63-.224,1.166-.672,1.608-.448.442-.987.664-1.616.664l-2.288-1.136c-.319,0-.589.112-.808.336s-.334.491-.344.8l1.151,2.288-1.151,2.288c.01.32.125.592.344.816.219.224.488.336.808.336v-1.152l1.136-2.288v-1.136h-1.136v-1.152h2.288c.629,0,1.168.224,1.616.672.448.448.672.987.672,1.616l-1.152,2.288c0,.32.112.592.336.816.225.224.496.336.816.336v1.136c-.64,0-1.182-.224-1.624-.672-.442-.448-.664-.987-.664-1.616l1.136-2.288c0-.309-.111-.576-.336-.8-.224-.224-.49-.336-.8-.336v1.136l-1.152,2.288v1.152h1.152v1.136h-2.288c-.629,0-1.168-.224-1.616-.672Z" stroke-width="0"/>
    <path d="M313.903,23.826c-.448-.448-.672-.987-.672-1.616v-2.288c0-.629.224-1.168.672-1.616.448-.448.986-.672,1.616-.672h2.288c.629,0,1.168.224,1.616.672.447.448.672.987.672,1.616v2.288c0,.629-.225,1.168-.672,1.616-.448.448-.987.672-1.616.672h-2.288c-.63,0-1.168-.224-1.616-.672ZM318.607,23.018c.224-.219.336-.488.336-.808v-2.288c0-.309-.112-.576-.336-.8s-.49-.336-.8-.336h-2.288c-.32,0-.59.112-.808.336-.219.224-.334.491-.345.8v2.288c.011.32.126.592.345.816.218.224.487.336.808.336h2.288c.31-.01.576-.125.8-.344Z" stroke-width="0"/>
  </g>
  <g>
    <rect x="32.867" y="63.524" width="29.885" height="29.885" fill="#fff" stroke="#000" stroke-miterlimit="10"/>
    <rect x="62.752" y="63.524" width="29.885" height="29.885" fill="#fff" stroke="#000" stroke-miterlimit="10"/>
    <rect x="92.637" y="63.524" width="29.885" height="29.885" fill="#fff" stroke="#000" stroke-miterlimit="10"/>
    <rect x="122.522" y="63.524" width="29.885" height="29.885" fill="#ffce00" stroke="#000" stroke-miterlimit="10"/>
    <rect x="152.407" y="63.524" width="29.885" height="29.885" fill="#fff" stroke="#000" stroke-miterlimit="10"/>
    <rect x="182.292" y="63.524" width="29.885" height="29.885" fill="#fff" stroke="#000" stroke-miterlimit="10"/>
    <rect x="212.177" y="63.524" width="29.885" height="29.885" fill="#ffce00" stroke="#000" stroke-miterlimit="10"/>
    <rect x="242.062" y="63.524" width="29.885" height="29.885" fill="#fff" stroke="#000" stroke-miterlimit="10"/>
    <rect x="271.947" y="63.524" width="29.885" height="29.885" fill="#fff" stroke="#000" stroke-miterlimit="10"/>
    <rect x="301.832" y="63.524" width="29.885" height="29.885" fill="#d6d6d6" stroke="#000" stroke-miterlimit="10"/>
    <rect x="331.717" y="63.524" width="29.885" height="29.885" fill="#d6d6d6" stroke="#000" stroke-miterlimit="10"/>
  </g>
  <g>
    <path d="M44.455,81.98v-2.288c0-.629.224-1.168.672-1.616.448-.448.986-.672,1.616-.672h2.288c.629,0,1.168.224,1.616.672.447.448.672.987.672,1.616v2.288c0,.629-.225,1.168-.672,1.616-.448.448-.987.672-1.616.672v-1.136c.31-.01.576-.125.8-.344s.336-.488.336-.808v-2.288c0-.309-.112-.576-.336-.8s-.49-.336-.8-.336h-2.288c-.32,0-.59.112-.808.336-.219.224-.334.491-.345.8v2.288c.011.32.126.592.345.816.218.224.487.336.808.336.31-.01.576-.125.8-.344.225-.219.336-.485.336-.8s-.111-.584-.336-.808c-.224-.224-.49-.336-.8-.336v-1.152c.629,0,1.168.224,1.616.672.448.448.672.986.672,1.616s-.224,1.168-.672,1.616c-.448.448-.987.672-1.616.672s-1.168-.224-1.616-.672c-.448-.448-.672-.987-.672-1.616Z" stroke-width="0"/>
    <path d="M75.014,83.596c-.448-.448-.672-.987-.672-1.616v-2.288c0-.629.224-1.168.672-1.616.448-.448.986-.672,1.616-.672s1.168.224,1.615.672c.448.448.673.987.673,1.616l-1.152,2.288v1.152h1.152c.309-.01.575-.125.8-.344.224-.219.336-.488.336-.808v-4.576c0-.31-.112-.576-.336-.8-.225-.224-.491-.336-.8-.336h-2.288c-.32,0-.59.112-.809.336s-.333.491-.344.8h-1.136c0-.629.224-1.166.672-1.608.448-.442.986-.664,1.616-.664h2.288c.629,0,1.168.222,1.615.664.448.443.672.979.672,1.608v4.576c0,.629-.224,1.168-.672,1.616-.447.448-.986.672-1.615.672h-2.288c-.63,0-1.168-.224-1.616-.672ZM76.631,81.98l1.136-2.288c0-.309-.112-.576-.336-.8-.225-.224-.494-.336-.809-.336s-.581.112-.8.336-.333.491-.344.8v2.288c.011.32.125.592.344.816.219.224.488.336.809.336v-1.152Z" stroke-width="0"/>
    <path d="M104.918,83.596c-.448-.448-.672-.987-.672-1.616v-2.288c0-.629.224-1.168.672-1.616.448-.448.986-.672,1.616-.672v1.152c-.32,0-.59.112-.808.336-.219.224-.334.491-.345.8v2.288c.011.32.126.592.345.816.218.224.487.336.808.336h2.288c.31-.01.576-.125.8-.344s.336-.488.336-.808v-2.288c0-.309-.112-.576-.336-.8s-.493-.336-.808-.336-.582.112-.8.336c-.219.224-.334.491-.345.8l1.152,2.288h-1.152l-1.136-2.288c0-.629.224-1.168.672-1.616.448-.448.986-.672,1.616-.672s1.168.224,1.616.672c.447.448.672.987.672,1.616v2.288c0,.629-.225,1.168-.672,1.616-.448.448-.987.672-1.616.672h-2.288c-.63,0-1.168-.224-1.616-.672Z" stroke-width="0"/>
    <path d="M134.149,81.98v-4.576c0-.629.224-1.166.672-1.608.448-.442.986-.664,1.616-.664l2.288,1.136c.31,0,.576-.112.8-.336s.336-.491.336-.8h1.152c0,.63-.225,1.166-.672,1.608-.448.442-.987.664-1.616.664l-2.288-1.136c-.32,0-.59.112-.808.336-.219.224-.334.491-.345.8v4.576c.011.32.126.592.345.816.218.224.487.336.808.336.31-.01.576-.125.8-.344.225-.219.336-.488.336-.808l-1.136-2.288c0-.629.224-1.168.672-1.616.448-.448.986-.672,1.616-.672s1.168.224,1.616.672c.447.448.672.987.672,1.616v2.288c0,.629-.225,1.168-.672,1.616-.448.448-.987.672-1.616.672v-1.136c.31-.01.576-.125.8-.344s.336-.488.336-.808v-2.288c0-.309-.112-.576-.336-.8s-.493-.336-.808-.336-.582.112-.8.336c-.219.224-.334.491-.345.8l1.152,2.288c0,.629-.224,1.168-.672,1.616-.448.448-.987.672-1.616.672s-1.168-.224-1.616-.672c-.448-.448-.672-.987-.672-1.616Z" stroke-width="0"/>
    <path d="M164.709,83.596c-.448-.448-.672-.987-.672-1.616v-2.288c0-.629.224-1.168.672-1.616.448-.448.986-.672,1.616-.672s1.168.224,1.616.672c.448.448.672.987.672,1.616l-1.152,2.288h-1.136l1.136-2.288c0-.309-.111-.576-.336-.8-.224-.224-.493-.336-.808-.336s-.582.112-.8.336c-.219.224-.334.491-.345.8v2.288c.011.32.126.592.345.816.218.224.487.336.808.336h2.288c.31-.01.576-.125.8-.344s.336-.488.336-.808v-2.288c0-.309-.112-.576-.336-.8s-.49-.336-.8-.336v-1.152c.629,0,1.168.224,1.616.672.447.448.672.987.672,1.616v2.288c0,.629-.225,1.168-.672,1.616-.448.448-.987.672-1.616.672h-2.288c-.63,0-1.168-.224-1.616-.672Z" stroke-width="0"/>
    <path d="M194.612,83.596c-.448-.448-.672-.987-.672-1.616v-4.576c0-.629.224-1.166.672-1.608.448-.442.986-.664,1.616-.664l2.288,1.136c.31,0,.576-.112.8-.336s.336-.491.336-.8h1.152c0,.63-.225,1.166-.672,1.608-.448.442-.987.664-1.616.664l-2.288-1.136c-.32,0-.59.112-.808.336-.219.224-.334.491-.345.8v4.576c.011.32.126.592.345.816.218.224.487.336.808.336h1.136v-1.152l-1.136-2.288c0-.629.224-1.168.672-1.616.448-.448.986-.672,1.616-.672s1.168.224,1.616.672c.447.448.672.987.672,1.616v2.288c0,.629-.225,1.168-.672,1.616-.448.448-.987.672-1.616.672h-2.288c-.63,0-1.168-.224-1.616-.672ZM199.316,82.788c.224-.219.336-.488.336-.808v-2.288c0-.309-.112-.576-.336-.8s-.493-.336-.808-.336-.582.112-.8.336c-.219.224-.334.491-.345.8l1.152,2.288v1.152c.31-.01.576-.125.8-.344Z" stroke-width="0"/>
    <path d="M224.5,83.596c-.448-.448-.672-.987-.672-1.616v-2.288c0-.629.224-1.168.672-1.616.448-.448.986-.672,1.616-.672v1.152c-.32,0-.59.112-.808.336-.219.224-.334.491-.345.8v2.288c.011.32.126.592.345.816.218.224.487.336.808.336h1.136v-1.152l-1.136-2.288c0-.629.224-1.168.672-1.616.448-.448.986-.672,1.616-.672s1.168.224,1.616.672c.447.448.672.987.672,1.616v2.288c0,.629-.225,1.168-.672,1.616-.448.448-.987.672-1.616.672h-2.288c-.63,0-1.168-.224-1.616-.672ZM229.204,82.788c.224-.219.336-.488.336-.808v-2.288c0-.309-.112-.576-.336-.8s-.493-.336-.808-.336-.582.112-.8.336c-.219.224-.334.491-.345.8l1.152,2.288v1.152c.31-.01.576-.125.8-.344Z" stroke-width="0"/>
    <path d="M254.387,83.596c-.448-.448-.672-.987-.672-1.616v-2.288c0-.629.224-1.168.672-1.616.448-.448.986-.672,1.616-.672s1.168.224,1.615.672c.448.448.673.987.673,1.616l-1.152,2.288h-1.136l1.136-2.288c0-.309-.112-.576-.336-.8-.225-.224-.494-.336-.809-.336s-.581.112-.8.336-.333.491-.344.8v2.288c.011.32.125.592.344.816.219.224.488.336.809.336h2.288c.309-.01.575-.125.8-.344.224-.219.336-.488.336-.808v-4.576c0-.31-.112-.576-.336-.8-.225-.224-.491-.336-.8-.336h-2.288c-.32,0-.59.112-.809.336s-.333.491-.344.8h-1.136c0-.629.224-1.166.672-1.608.448-.442.986-.664,1.616-.664h2.288c.629,0,1.168.222,1.615.664.448.443.672.979.672,1.608v4.576c0,.629-.224,1.168-.672,1.616-.447.448-.986.672-1.615.672h-2.288c-.63,0-1.168-.224-1.616-.672Z" stroke-width="0"/>
    <path d="M284.283,83.596c-.448-.448-.672-.987-.672-1.616v-2.288c0-.629.224-1.168.672-1.616.448-.448.986-.672,1.616-.672s1.168.224,1.615.672c.448.448.673.987.673,1.616l-1.152,2.288c.011.32.125.592.344.816.219.224.488.336.809.336.309-.01.575-.125.8-.344.224-.219.336-.488.336-.808v-4.576c0-.31-.112-.576-.336-.8-.225-.224-.491-.336-.8-.336h-2.288c-.32,0-.59.112-.809.336s-.333.491-.344.8h-1.136c0-.629.224-1.166.672-1.608.448-.442.986-.664,1.616-.664h2.288c.629,0,1.168.222,1.615.664.448.443.672.979.672,1.608v4.576c0,.629-.224,1.168-.672,1.616-.447.448-.986.672-1.615.672s-1.169-.224-1.616-.672c-.448-.448-.672-.987-.672-1.616l1.136-2.288c0-.309-.112-.576-.336-.8-.225-.224-.494-.336-.809-.336s-.581.112-.8.336-.333.491-.344.8v2.288c.011.32.125.592.344.816.219.224.488.336.809.336v1.136c-.63,0-1.168-.224-1.616-.672Z" stroke-width="0"/>
  </g>
  <g>
    <rect x="51.285" y="93.409" width="29.885" height="29.885" fill="#fff" stroke="#000" stroke-miterlimit="10"/>
    <rect x="81.17" y="93.409" width="29.885" height="29.885" fill="#fff" stroke="#000" stroke-miterlimit="10"/>
    <rect x="111.055" y="93.409" width="29.885" height="29.885" fill="#fff" stroke="#000" stroke-miterlimit="10"/>
    <rect x="140.941" y="93.409" width="29.885" height="29.885" fill="#fff" stroke="#000" stroke-miterlimit="10"/>
    <rect x="170.826" y="93.409" width="29.885" height="29.885" fill="#fff" stroke="#000" stroke-miterlimit="10"/>
    <rect x="200.711" y="93.409" width="29.885" height="29.885" fill="#fff" stroke="#000" stroke-miterlimit="10"/>
    <rect x="230.596" y="93.409" width="29.885" height="29.885" fill="#fff" stroke="#000" stroke-miterlimit="10"/>
    <rect x="260.481" y="93.409" width="29.885" height="29.885" fill="#d6d6d6" stroke="#000" stroke-miterlimit="10"/>
    <rect x="290.366" y="93.409" width="29.885" height="29.885" fill="#d6d6d6" stroke="#000" stroke-miterlimit="10"/>
    <rect x="320.251" y="93.409" width="29.885" height="29.885" fill="#d6d6d6" stroke="#000" stroke-miterlimit="10"/>
  </g>
  <g>
    <path d="M63.546,113.481c-.448-.448-.672-.986-.672-1.616v-2.288c0-.629.224-1.168.672-1.615.447-.448.986-.672,1.615-.672s1.169.224,1.616.672c.448.447.672.986.672,1.615l-1.151,2.288v1.152h1.151c.31-.011.576-.125.801-.344.224-.219.336-.488.336-.809v-2.288c0-.309-.112-.575-.336-.8-.225-.224-.491-.336-.801-.336v-1.151c.63,0,1.168.224,1.616.672.448.447.672.986.672,1.615v2.288c0,.63-.224,1.168-.672,1.616s-.986.672-1.616.672h-2.288c-.629,0-1.168-.224-1.615-.672ZM65.161,111.865l1.137-2.288c0-.309-.112-.575-.336-.8-.225-.224-.494-.336-.809-.336s-.581.112-.8.336c-.219.225-.333.491-.344.8v2.288c.011.32.125.593.344.816s.488.336.808.336v-1.152Z" stroke-width="0"/>
    <path d="M93.432,113.481c-.447-.448-.672-.986-.672-1.616v-2.288c0-.629.225-1.168.672-1.615s.987-.672,1.616-.672,1.168.224,1.616.672c.448.447.672.986.672,1.615l-1.152,2.288v1.152h1.152c.31-.011.576-.125.8-.344.225-.219.336-.488.336-.809v-4.575c0-.31-.111-.576-.336-.801s-.49-.336-.8-.336l-2.288,1.137c-.629,0-1.168-.222-1.616-.664-.447-.443-.672-.979-.672-1.608h1.136c.011.31.126.576.345.8.218.225.487.336.808.336l2.288-1.136c.629,0,1.168.222,1.616.664s.672.979.672,1.608v4.575c0,.63-.224,1.168-.672,1.616s-.987.672-1.616.672h-2.288c-.629,0-1.168-.224-1.616-.672ZM95.048,111.865l1.136-2.288c0-.309-.111-.575-.336-.8s-.493-.336-.808-.336-.582.112-.8.336c-.219.225-.334.491-.345.8v2.288c.011.32.126.593.345.816.218.224.487.336.808.336v-1.152Z" stroke-width="0"/>
    <path d="M123.337,113.481c-.448-.448-.672-.986-.672-1.616v-4.575c0-.63.224-1.166.672-1.608.447-.442.986-.664,1.615-.664h2.288c.63,0,1.168.222,1.616.664s.672.979.672,1.608h-1.151c0-.31-.112-.576-.336-.801-.225-.224-.491-.336-.801-.336h-2.288c-.319,0-.589.112-.808.336-.219.225-.333.491-.344.801v4.575c.011.32.125.593.344.816s.488.336.808.336h1.137v-1.152l-1.137-2.288c0-.629.225-1.168.673-1.615.447-.448.986-.672,1.615-.672s1.168.224,1.616.672c.448.447.672.986.672,1.615v2.288c0,.63-.224,1.168-.672,1.616s-.986.672-1.616.672h-2.288c-.629,0-1.168-.224-1.615-.672ZM128.041,112.674c.224-.219.336-.488.336-.809v-2.288c0-.309-.112-.575-.336-.8-.225-.224-.494-.336-.809-.336s-.581.112-.8.336c-.219.225-.333.491-.344.8l1.151,2.288v1.152c.31-.011.576-.125.801-.344Z" stroke-width="0"/>
    <path d="M153.232,113.481c-.448-.448-.672-.986-.672-1.616v-2.288c0-.629.224-1.168.672-1.615.447-.448.986-.672,1.615-.672h2.288c.63,0,1.168.224,1.616.672.448.447.672.986.672,1.615v2.288c0,.63-.224,1.168-.672,1.616s-.986.672-1.616.672-1.168-.224-1.615-.672c-.448-.448-.673-.986-.673-1.616s.225-1.168.673-1.615c.447-.448.986-.673,1.615-.673v1.152c-.319,0-.589.112-.808.336-.219.225-.333.491-.344.8.011.32.125.593.344.816s.488.336.808.336c.31-.011.576-.125.801-.344.224-.219.336-.488.336-.809v-2.288c0-.309-.112-.575-.336-.8-.225-.224-.491-.336-.801-.336h-2.288c-.319,0-.589.112-.808.336-.219.225-.333.491-.344.8v2.288c.011.32.125.593.344.816s.488.336.808.336v1.136c-.629,0-1.168-.224-1.615-.672Z" stroke-width="0"/>
    <path d="M182.456,111.865v-2.288c0-.629.224-1.168.672-1.615.447-.448.986-.672,1.615-.672v1.151c-.319,0-.589.112-.808.336-.219.225-.333.491-.344.8v2.288c.011.32.125.593.344.816s.488.336.808.336c.31-.011.576-.125.801-.344.224-.219.336-.488.336-.809l-1.137-2.288c0-.629.225-1.168.673-1.615.447-.448.986-.672,1.615-.672s1.168.224,1.616.672c.448.447.672.986.672,1.615v2.288c0,.63-.224,1.168-.672,1.616s-.986.672-1.616.672v-1.136c.31-.011.576-.125.801-.344.224-.219.336-.488.336-.809v-2.288c0-.309-.112-.575-.336-.8-.225-.224-.494-.336-.809-.336s-.581.112-.8.336c-.219.225-.333.491-.344.8l1.151,2.288c0,.63-.224,1.168-.672,1.616-.447.448-.986.672-1.616.672s-1.168-.224-1.615-.672c-.448-.448-.672-.986-.672-1.616Z" stroke-width="0"/>
    <path d="M213.023,113.481c-.448-.448-.672-.986-.672-1.616v-2.288c0-.629.224-1.168.672-1.615.447-.448.986-.672,1.615-.672s1.169.224,1.616.672c.448.447.672.986.672,1.615l-1.151,2.288c.011.32.125.593.344.816s.488.336.808.336c.31-.011.576-.125.801-.344.224-.219.336-.488.336-.809v-2.288c0-.309-.112-.575-.336-.8-.225-.224-.491-.336-.801-.336v-1.151c.63,0,1.168.224,1.616.672.448.447.672.986.672,1.615v2.288c0,.63-.224,1.168-.672,1.616s-.986.672-1.616.672-1.168-.224-1.615-.672c-.448-.448-.673-.986-.673-1.616l1.137-2.288c0-.309-.112-.575-.336-.8-.225-.224-.494-.336-.809-.336s-.581.112-.8.336c-.219.225-.333.491-.344.8v2.288c.011.32.125.593.344.816s.488.336.808.336v1.136c-.629,0-1.168-.224-1.615-.672Z" stroke-width="0"/>
    <path d="M242.919,113.481c-.448-.448-.672-.986-.672-1.616v-2.288c0-.629.224-1.168.672-1.615.447-.448.986-.672,1.615-.672v1.151c-.319,0-.589.112-.808.336-.219.225-.333.491-.344.8v2.288c.011.32.125.593.344.816s.488.336.808.336h2.288c.31-.011.576-.125.801-.344.224-.219.336-.488.336-.809v-2.288c0-.309-.112-.575-.336-.8-.225-.224-.494-.336-.809-.336s-.581.112-.8.336c-.219.225-.333.491-.344.8.011.32.125.593.344.816s.488.336.808.336v1.136c-.629,0-1.168-.224-1.615-.672-.448-.448-.673-.986-.673-1.616s.225-1.168.673-1.615c.447-.448.986-.672,1.615-.672s1.168.224,1.616.672c.448.447.672.986.672,1.615v2.288c0,.63-.224,1.168-.672,1.616s-.986.672-1.616.672h-2.288c-.629,0-1.168-.224-1.615-.672Z" stroke-width="0"/>
  </g>
</svg>