<?xml version="1.0" encoding="UTF-8"?>
<svg id="a" data-name="레이어 1" xmlns="http://www.w3.org/2000/svg" width="424.354" height="127.047" viewBox="0 0 424.354 127.047">
  <g>
    <rect x="2.982" y="3.753" width="29.885" height="29.885" fill="#d6d6d6" stroke="#000" stroke-miterlimit="10"/>
    <rect x="32.867" y="3.753" width="29.885" height="29.885" fill="#fff" stroke="#000" stroke-miterlimit="10"/>
    <rect x="62.752" y="3.753" width="29.885" height="29.885" fill="#fff" stroke="#000" stroke-miterlimit="10"/>
    <rect x="92.637" y="3.753" width="29.885" height="29.885" fill="#fff" stroke="#000" stroke-miterlimit="10"/>
    <rect x="122.522" y="3.753" width="29.885" height="29.885" fill="#fff" stroke="#000" stroke-miterlimit="10"/>
    <rect x="152.407" y="3.753" width="29.885" height="29.885" fill="#fff" stroke="#000" stroke-miterlimit="10"/>
    <rect x="182.292" y="3.753" width="29.885" height="29.885" fill="#fff" stroke="#000" stroke-miterlimit="10"/>
    <rect x="212.177" y="3.753" width="29.885" height="29.885" fill="#fff" stroke="#000" stroke-miterlimit="10"/>
    <rect x="242.062" y="3.753" width="29.885" height="29.885" fill="#fff" stroke="#000" stroke-miterlimit="10"/>
    <rect x="271.947" y="3.753" width="29.885" height="29.885" fill="#fff" stroke="#000" stroke-miterlimit="10"/>
    <rect x="301.832" y="3.753" width="29.885" height="29.885" fill="#fff" stroke="#000" stroke-miterlimit="10"/>
    <rect x="331.717" y="3.753" width="29.885" height="29.885" fill="#d6d6d6" stroke="#000" stroke-miterlimit="10"/>
    <rect x="361.603" y="3.753" width="29.885" height="29.885" fill="#d6d6d6" stroke="#000" stroke-miterlimit="10"/>
    <rect x="391.488" y="3.753" width="29.885" height="29.885" fill="#d6d6d6" stroke="#000" stroke-miterlimit="10"/>
  </g>
  <g>
    <rect x="17.924" y="33.639" width="29.885" height="29.885" fill="#fff" stroke="#000" stroke-miterlimit="10"/>
    <rect x="47.809" y="33.639" width="29.885" height="29.885" fill="#fff" stroke="#000" stroke-miterlimit="10"/>
    <rect x="77.694" y="33.639" width="29.885" height="29.885" fill="#fff" stroke="#000" stroke-miterlimit="10"/>
    <rect x="107.58" y="33.639" width="29.885" height="29.885" fill="#fff" stroke="#000" stroke-miterlimit="10"/>
    <rect x="137.465" y="33.639" width="29.885" height="29.885" fill="#fff" stroke="#000" stroke-miterlimit="10"/>
    <rect x="167.35" y="33.639" width="29.885" height="29.885" fill="#fff" stroke="#000" stroke-miterlimit="10"/>
    <rect x="197.235" y="33.639" width="29.885" height="29.885" fill="#fff" stroke="#000" stroke-miterlimit="10"/>
    <rect x="227.12" y="33.639" width="29.885" height="29.885" fill="#fff" stroke="#000" stroke-miterlimit="10"/>
    <rect x="257.005" y="33.639" width="29.885" height="29.885" fill="#fff" stroke="#000" stroke-miterlimit="10"/>
    <rect x="286.89" y="33.639" width="29.885" height="29.885" fill="#fff" stroke="#000" stroke-miterlimit="10"/>
    <rect x="316.775" y="33.639" width="29.885" height="29.885" fill="#d6d6d6" stroke="#000" stroke-miterlimit="10"/>
    <rect x="346.66" y="33.639" width="29.885" height="29.885" fill="#d6d6d6" stroke="#000" stroke-miterlimit="10"/>
  </g>
  <g>
    <path d="M56.992,53.847c-.357-.357-.536-.786-.536-1.288v-1.84c0-.501.179-.931.536-1.288.357-.357.786-.536,1.288-.536h1.84c-.512,0-.946.179-1.304.536-.357.357-.536.787-.536,1.288v3.664c-.502,0-.931-.179-1.288-.536ZM59.584,53.847c.357-.357.536-.786.536-1.288v-5.488h-1.84c.512,0,.946-.179,1.304-.536.357-.357.536-.786.536-1.288.501,0,.931.176,1.288.528s.536.784.536,1.296v5.488c0,.502-.179.931-.536,1.288-.357.357-.787.536-1.288.536h-1.84c.512,0,.946-.179,1.304-.536ZM64.303,53.847c-.357-.357-.535-.786-.535-1.288v-1.84c0-.501-.179-.931-.536-1.288-.357-.357-.787-.536-1.288-.536h1.824c.512,0,.943.179,1.296.536.352.357.527.787.527,1.288v3.664c-.501,0-.931-.179-1.288-.536ZM66.896,53.847c.356-.357.536-.789.536-1.296s-.18-.938-.536-1.296c-.357-.357-.792-.536-1.305-.536h1.841c.501,0,.93.179,1.287.536s.536.79.536,1.296-.179.939-.536,1.296c-.357.357-.786.536-1.287.536h-1.841c.513,0,.947-.179,1.305-.536Z" stroke-width="0"/>
    <path d="M29.532,53.847c-.357-.357-.536-.786-.536-1.288v-5.488h-1.824c.501,0,.931-.179,1.288-.536.357-.357.536-.786.536-1.288.512,0,.946.176,1.304.528s.536.784.536,1.296v5.488c0,.502.176.931.528,1.288.352.357.783.536,1.295.536h-1.823c-.513,0-.946-.179-1.304-.536ZM32.659,48.895c.502,0,.932-.179,1.289-.536s.535-.787.535-1.288h1.824c.512,0,.947.179,1.305.536s.535.787.535,1.288v3.664c0,.502-.178.931-.535,1.288-.357.357-.793.536-1.305.536,0-.501-.176-.931-.527-1.288-.353-.357-.784-.536-1.297-.536h1.824v-3.664h-1.824v3.664c0,.502-.178.931-.535,1.288-.357.357-.787.536-1.289.536v-5.488Z" stroke-width="0"/>
    <path d="M90.288,53.847c-.357-.357-.536-.786-.536-1.288v-9.152h-1.824c.502,0,.931-.178,1.288-.536.357-.357.536-.786.536-1.288.512,0,.946.179,1.304.536.357.357.536.787.536,1.288v9.152c0,.502.176.931.528,1.288.352.357.784.536,1.296.536h-1.824c-.512,0-.946-.179-1.304-.536ZM94.704,53.847c.357-.357.536-.786.536-1.288h1.824c0,.502-.177.931-.528,1.288-.353.357-.784.536-1.296.536h-1.824c.501,0,.931-.179,1.288-.536Z" stroke-width="0"/>
    <path d="M121.055,59.335c-.357-.357-.536-.787-.536-1.288v-10.976h-1.824c.502,0,.931-.179,1.288-.536.357-.357.536-.786.536-1.288.512,0,.946.176,1.304.528s.536.784.536,1.296v12.8c-.512,0-.946-.179-1.304-.536ZM123.647,53.847c.357-.357.536-.786.536-1.288v-1.84c0-.501-.179-.931-.536-1.288-.357-.357-.787-.536-1.288-.536h1.824c.501,0,.931.179,1.288.536.357.357.536.787.536,1.288v1.84c0,.502-.179.931-.536,1.288-.357.357-.787.536-1.288.536h-1.824c.501,0,.931-.179,1.288-.536Z" stroke-width="0"/>
    <path d="M150.07,53.847c-.357-.357-.535-.786-.535-1.288v-5.488h-1.824c.501,0,.931-.179,1.288-.536.356-.357.536-.786.536-1.288.512,0,.946.176,1.304.528s.536.784.536,1.296v5.488c0,.502.176.931.527,1.288.353.357.784.536,1.296.536h-1.823c-.513,0-.947-.179-1.305-.536ZM153.463,50.455c-.176-.176-.265-.392-.265-.648v-.912h.912c.257,0,.473.09.648.272.176.181.264.395.264.64v.912h-.912c-.256,0-.472-.088-.647-.264ZM154.486,53.847c.357-.357.536-.786.536-1.288h1.824c0,.502-.176.931-.528,1.288-.352.357-.783.536-1.296.536h-1.824c.502,0,.931-.179,1.288-.536ZM155.295,48.631c-.182-.176-.272-.392-.272-.648v-.912h.912c.256,0,.472.088.648.264.176.176.264.392.264.648v.912h-.912c-.245,0-.459-.088-.64-.264Z" stroke-width="0"/>
    <path d="M179.974,53.847c-.357-.357-.536-.786-.536-1.288v-9.152h-1.824c.502,0,.931-.178,1.288-.536.357-.357.536-.786.536-1.288.512,0,.946.179,1.304.536.357.357.536.787.536,1.288v9.152c0,.502.176.931.528,1.288.352.357.784.536,1.296.536h-1.824c-.512,0-.946-.179-1.304-.536ZM184.39,53.847c.357-.357.536-.786.536-1.288h1.824c0,.502-.177.931-.528,1.288-.353.357-.784.536-1.296.536h-1.824c.501,0,.931-.179,1.288-.536Z" stroke-width="0"/>
    <path d="M206.477,53.847c-.357-.357-.535-.786-.535-1.288v-1.84c0-.501.178-.931.535-1.288.357-.357.787-.536,1.288-.536h1.841c-.513,0-.947.179-1.305.536-.357.357-.536.787-.536,1.288v3.664c-.501,0-.931-.179-1.288-.536ZM209.07,53.847c.356-.357.536-.786.536-1.288v-5.488h-1.841c.513,0,.947-.179,1.305-.536.356-.357.536-.786.536-1.288.501,0,.93.176,1.287.528s.536.784.536,1.296v5.488c0,.502-.179.931-.536,1.288-.357.357-.786.536-1.287.536h-1.841c.513,0,.947-.179,1.305-.536ZM213.79,53.847c-.357-.357-.536-.786-.536-1.288v-1.84c0-.501-.179-.931-.536-1.288-.357-.357-.786-.536-1.288-.536h1.824c.512,0,.944.179,1.296.536.353.357.528.787.528,1.288v3.664c-.502,0-.931-.179-1.288-.536ZM215.349,48.631c-.181-.176-.271-.392-.271-.648v-.912h.928c.245,0,.459.088.64.264.182.176.272.392.272.648v.912h-.912c-.256,0-.475-.088-.656-.264ZM216.381,53.847c.357-.357.536-.789.536-1.296s-.179-.938-.536-1.296-.792-.536-1.304-.536h1.84c.501,0,.931.179,1.288.536s.536.79.536,1.296-.179.939-.536,1.296c-.357.357-.787.536-1.288.536h-1.84c.512,0,.946-.179,1.304-.536Z" stroke-width="0"/>
    <path d="M239.773,53.847c-.357-.357-.536-.786-.536-1.288v-9.152h-1.824c.502,0,.931-.178,1.288-.536.357-.357.536-.786.536-1.288.512,0,.946.179,1.304.536.357.357.536.787.536,1.288v9.152c0,.502.176.931.528,1.288.352.357.784.536,1.296.536h-1.824c-.512,0-.946-.179-1.304-.536ZM243.165,50.455c-.176-.176-.264-.392-.264-.648v-.912h.912c.256,0,.472.09.647.272.177.181.265.395.265.64v.912h-.912c-.256,0-.472-.088-.648-.264ZM244.189,53.847c.357-.357.536-.786.536-1.288h1.824c0,.502-.177.931-.528,1.288-.353.357-.784.536-1.296.536h-1.824c.501,0,.931-.179,1.288-.536Z" stroke-width="0"/>
    <path d="M266.26,53.847c-.357-.357-.536-.786-.536-1.288v-1.84c0-.501.179-.931.536-1.288.357-.357.786-.536,1.288-.536h1.84c-.512,0-.946.179-1.304.536-.357.357-.536.787-.536,1.288v3.664c-.502,0-.931-.179-1.288-.536ZM268.852,53.847c.357-.357.536-.786.536-1.288v-5.488h-1.84c.512,0,.946-.179,1.304-.536.357-.357.536-.786.536-1.288.501,0,.931.176,1.288.528s.536.784.536,1.296v5.488c0,.502-.179.931-.536,1.288-.357.357-.787.536-1.288.536h-1.84c.512,0,.946-.179,1.304-.536ZM273.572,53.847c-.357-.357-.535-.786-.535-1.288v-1.84c0-.501-.179-.931-.536-1.288-.357-.357-.787-.536-1.288-.536h1.824c.512,0,.943.179,1.296.536.352.357.527.787.527,1.288v3.664c-.501,0-.931-.179-1.288-.536ZM276.165,53.847c.356-.357.536-.789.536-1.296s-.18-.938-.536-1.296c-.357-.357-.792-.536-1.305-.536h1.841c.501,0,.93.179,1.287.536s.536.79.536,1.296-.179.939-.536,1.296c-.357.357-.786.536-1.287.536h-1.841c.513,0,.947-.179,1.305-.536Z" stroke-width="0"/>
    <path d="M298.132,47.071h-1.824c.501,0,.931-.179,1.288-.536.356-.357.536-.786.536-1.288.512,0,.946.176,1.304.528s.536.784.536,1.296v1.824c.501,0,.931-.179,1.288-.536.356-.357.535-.787.535-1.288h1.824c.513,0,.944.179,1.296.536.353.357.528.787.528,1.288v1.824c0,.512-.176.947-.528,1.304-.352.357-.783.536-1.296.536h-1.824c.502,0,.931-.178,1.288-.536s.536-.792.536-1.304v-1.824h-1.824c-.512,0-.943.179-1.296.536-.352.357-.527.787-.527,1.288v1.84c0,.502-.179.931-.536,1.288-.357.357-.792.536-1.304.536v-7.312ZM300.236,44.975c-.176-.181-.264-.4-.264-.656v-.912h.912c.245,0,.458.091.64.272.182.182.271.395.271.64v.928h-.911c-.257,0-.473-.09-.648-.272ZM300.5,53.095c.353-.357.784-.536,1.296-.536,0,.502.179.931.536,1.288.357.357.787.536,1.288.536h-3.647c0-.501.176-.931.527-1.288ZM302.06,43.143c-.176-.176-.265-.392-.265-.648v-.912h.912c.257,0,.473.09.648.272.176.181.264.395.264.64v.912h-.912c-.256,0-.472-.088-.647-.264ZM304.916,53.847c.353-.357.528-.786.528-1.288h1.84c0,.502-.179.931-.536,1.288-.357.357-.792.536-1.304.536h-1.824c.513,0,.944-.179,1.296-.536Z" stroke-width="0"/>
  </g>
  <g>
    <rect x="32.867" y="63.524" width="29.885" height="29.885" fill="#fff" stroke="#000" stroke-miterlimit="10"/>
    <rect x="62.752" y="63.524" width="29.885" height="29.885" fill="#fff" stroke="#000" stroke-miterlimit="10"/>
    <rect x="92.637" y="63.524" width="29.885" height="29.885" fill="#fff" stroke="#000" stroke-miterlimit="10"/>
    <rect x="122.522" y="63.524" width="29.885" height="29.885" fill="#ffce00" stroke="#000" stroke-miterlimit="10"/>
    <rect x="152.407" y="63.524" width="29.885" height="29.885" fill="#fff" stroke="#000" stroke-miterlimit="10"/>
    <rect x="182.292" y="63.524" width="29.885" height="29.885" fill="#fff" stroke="#000" stroke-miterlimit="10"/>
    <rect x="212.177" y="63.524" width="29.885" height="29.885" fill="#ffce00" stroke="#000" stroke-miterlimit="10"/>
    <rect x="242.062" y="63.524" width="29.885" height="29.885" fill="#fff" stroke="#000" stroke-miterlimit="10"/>
    <rect x="271.947" y="63.524" width="29.885" height="29.885" fill="#fff" stroke="#000" stroke-miterlimit="10"/>
    <rect x="301.832" y="63.524" width="29.885" height="29.885" fill="#d6d6d6" stroke="#000" stroke-miterlimit="10"/>
    <rect x="331.717" y="63.524" width="29.885" height="29.885" fill="#d6d6d6" stroke="#000" stroke-miterlimit="10"/>
  </g>
  <g>
    <path d="M42.567,77.492c-.357-.357-.787-.536-1.288-.536,0-.512.179-.944.536-1.296s.787-.528,1.288-.528h5.487c.513,0,.944.176,1.297.528.352.352.527.784.527,1.296v1.824c0-.501-.176-.931-.527-1.288-.353-.357-.784-.536-1.297-.536h-5.487v1.824c0-.501-.179-.931-.536-1.288ZM44.943,80.604c0-.501.176-.931.528-1.288.352-.357.783-.536,1.296-.536h3.647c0,.512-.176.944-.527,1.296-.353.352-.784.528-1.297.528h-1.823c-.513,0-.944.179-1.296.536-.353.357-.528.792-.528,1.304v-1.84ZM45.471,83.732c-.353-.357-.528-.786-.528-1.288h3.647c.513,0,.944.179,1.297.536.352.357.527.787.527,1.288h-3.647c-.513,0-.944-.179-1.296-.536ZM51.719,83.732c.357-.357.535-.786.535-1.288h1.824c0,.502-.179.931-.535,1.288-.357.357-.787.536-1.289.536h-1.84c.512,0,.947-.179,1.305-.536Z" stroke-width="0"/>
    <path d="M70.726,83.732c-.357-.357-.536-.786-.536-1.288v-5.488h-1.824c.502,0,.932-.179,1.289-.536.356-.357.535-.786.535-1.288.512,0,.947.176,1.305.528s.535.784.535,1.296v5.488c0,.502.176.931.528,1.288.353.357.784.536,1.296.536h-1.824c-.512,0-.946-.179-1.304-.536ZM74.118,80.34c-.176-.176-.264-.392-.264-.648v-.912h.912c.256,0,.473.09.648.272.176.181.264.395.264.64v.912h-.912c-.256,0-.472-.088-.648-.264ZM75.142,83.732c.357-.357.536-.786.536-1.288h1.824v-1.84c0,.512.178.947.535,1.304s.793.536,1.305.536c0,.502-.179.931-.536,1.288-.357.357-.792.536-1.304.536h-3.648c.502,0,.931-.179,1.288-.536ZM75.95,78.516c-.182-.176-.271-.392-.271-.648v-.912h.912c.256,0,.472.088.648.264.176.176.264.392.264.648v.912h-.912c-.246,0-.459-.088-.641-.264ZM81.702,83.732c-.357-.357-.535-.786-.535-1.288v-1.84h-3.664c.512,0,.946-.176,1.304-.528s.536-.784.536-1.296h1.824c.501,0,.93.179,1.287.536.357.357.537.787.537,1.288v3.664c-.502,0-.932-.179-1.289-.536ZM84.295,83.732c.356-.357.536-.789.536-1.296s-.18-.938-.536-1.296c-.358-.357-.792-.536-1.304-.536h1.84c.501,0,.93.179,1.287.536s.537.79.537,1.296-.18.939-.537,1.296c-.357.357-.786.536-1.287.536h-1.84c.512,0,.945-.179,1.304-.536Z" stroke-width="0"/>
    <path d="M105.238,83.732c-.357-.357-.536-.786-.536-1.288v-5.488h-1.824c.502,0,.932-.179,1.289-.536.356-.357.535-.786.535-1.288.512,0,.947.176,1.305.528s.535.784.535,1.296v5.488c0,.502.176.931.528,1.288.353.357.784.536,1.296.536h-1.824c-.512,0-.946-.179-1.304-.536ZM108.63,80.34c-.176-.176-.264-.392-.264-.648v-.912h.912c.256,0,.473.09.648.272.176.181.264.395.264.64v.912h-.912c-.256,0-.472-.088-.648-.264ZM109.654,83.732c.357-.357.536-.786.536-1.288h1.824c0,.502-.176.931-.528,1.288-.353.357-.784.536-1.296.536h-1.824c.502,0,.931-.179,1.288-.536Z" stroke-width="0"/>
    <path d="M133.71,76.956h-1.824c.501,0,.931-.179,1.288-.536.356-.357.536-.786.536-1.288.512,0,.946.176,1.304.528s.536.784.536,1.296v1.824c.501,0,.931-.179,1.288-.536.356-.357.535-.787.535-1.288h1.824c.513,0,.944.179,1.296.536.353.357.528.787.528,1.288v1.824c0,.512-.176.947-.528,1.304-.352.357-.783.536-1.296.536h-1.824c.502,0,.931-.178,1.288-.536s.536-.792.536-1.304v-1.824h-1.824c-.512,0-.943.179-1.296.536-.352.357-.527.787-.527,1.288v7.328c0,.501-.179.931-.536,1.288-.357.356-.792.535-1.304.535v-12.799ZM135.813,74.86c-.176-.181-.264-.4-.264-.656v-.912h.912c.245,0,.458.091.64.272.182.182.271.395.271.64v.928h-.911c-.257,0-.473-.09-.648-.272ZM136.077,82.98c.353-.357.784-.536,1.296-.536,0,.502.179.931.536,1.288.357.357.787.536,1.288.536h-3.647c0-.501.176-.931.527-1.288ZM137.637,73.028c-.176-.176-.265-.392-.265-.648v-.912h.912c.257,0,.473.09.648.272.176.181.264.395.264.64v.912h-.912c-.256,0-.472-.088-.647-.264ZM140.493,83.732c.353-.357.528-.786.528-1.288h1.84c0,.502-.179.931-.536,1.288-.357.357-.792.536-1.304.536h-1.824c.513,0,.944-.179,1.296-.536Z" stroke-width="0"/>
    <path d="M164.045,83.732c-.357-.357-.535-.786-.535-1.288v-5.488h-1.824c.501,0,.931-.179,1.288-.536.356-.357.536-.786.536-1.288.512,0,.946.176,1.304.528s.536.784.536,1.296v5.488c0,.502.176.931.527,1.288.353.357.784.536,1.296.536h-1.823c-.513,0-.947-.179-1.305-.536ZM165.613,74.86c-.176-.181-.264-.4-.264-.656v-.912h.912c.245,0,.458.091.64.272.182.182.271.395.271.64v.928h-.911c-.257,0-.473-.09-.648-.272ZM167.172,78.781c.502,0,.931-.179,1.288-.536s.536-.787.536-1.288h1.824c.512,0,.946.179,1.304.536s.536.787.536,1.288v3.664c0,.502-.179.931-.536,1.288-.357.357-.792.536-1.304.536,0-.501-.176-.931-.528-1.288-.352-.357-.783-.536-1.296-.536h1.824v-3.664h-1.824v3.664c0,.502-.179.931-.536,1.288-.357.357-.786.536-1.288.536v-5.488Z" stroke-width="0"/>
    <path d="M192.045,77.492c-.357-.357-.787-.536-1.288-.536,0-.512.179-.944.536-1.296.356-.352.786-.528,1.288-.528h5.487c.513,0,.944.176,1.296.528.353.352.528.784.528,1.296v1.824c0-.501-.176-.931-.528-1.288-.352-.357-.783-.536-1.296-.536h-5.487v1.824c0-.501-.179-.931-.536-1.288ZM194.421,80.604c0-.501.176-.931.527-1.288.353-.357.784-.536,1.297-.536h3.647c0,.512-.176.944-.528,1.296-.352.352-.783.528-1.296.528h-1.823c-.513,0-.944.179-1.297.536-.352.357-.527.792-.527,1.304v-1.84ZM194.948,83.732c-.352-.357-.527-.786-.527-1.288h3.647c.513,0,.944.179,1.296.536.353.357.528.787.528,1.288h-3.647c-.513,0-.944-.179-1.297-.536ZM200.165,74.86c-.182-.181-.272-.4-.272-.656v-.912h.928c.245,0,.459.091.641.272.181.182.271.395.271.64v.928h-.912c-.256,0-.475-.09-.655-.272ZM201.196,83.732c.357-.357.536-.786.536-1.288h1.824c0,.502-.179.931-.536,1.288-.357.357-.786.536-1.288.536h-1.84c.512,0,.946-.179,1.304-.536Z" stroke-width="0"/>
    <path d="M222.044,83.732c-.357-.357-.535-.786-.535-1.288v-5.488h-1.824c.501,0,.931-.179,1.288-.536.356-.357.536-.786.536-1.288.512,0,.946.176,1.304.528s.536.784.536,1.296v5.488c0,.502.176.931.527,1.288.353.357.784.536,1.296.536h-1.823c-.513,0-.947-.179-1.305-.536ZM223.612,74.86c-.176-.181-.264-.4-.264-.656v-.912h.912c.245,0,.458.091.64.272.182.182.271.395.271.64v.928h-.911c-.257,0-.473-.09-.648-.272ZM225.708,85.556c-.357-.357-.536-.787-.536-1.288v-5.488c.502,0,.931-.179,1.288-.536s.536-.787.536-1.288h1.824c.512,0,.946.179,1.304.536s.536.787.536,1.288v3.664c0,.502-.179.931-.536,1.288-.357.357-.792.536-1.304.536h-1.824c.513,0,.944-.179,1.296-.536.353-.357.528-.786.528-1.288v-3.664h-1.824v5.488c0,.501.179.931.536,1.288.357.357.786.536,1.288.536h-1.824c-.501,0-.931-.179-1.288-.536ZM230.124,85.556c.357-.357.536-.787.536-1.288.501,0,.931-.179,1.288-.536.357-.357.536-.789.536-1.296s-.179-.938-.536-1.296-.787-.536-1.288-.536h1.824c.501,0,.931.179,1.288.536s.536.79.536,1.296-.179.939-.536,1.296c-.357.357-.787.536-1.288.536,0,.501-.179.931-.536,1.288-.357.357-.787.536-1.288.536h-1.84c.512,0,.946-.179,1.304-.536Z" stroke-width="0"/>
    <path d="M253.731,83.732c-.357-.357-.535-.786-.535-1.288v-5.488h-1.824c.501,0,.931-.179,1.288-.536.356-.357.536-.786.536-1.288.512,0,.946.176,1.304.528s.536.784.536,1.296v5.488c0,.502.176.931.527,1.288.353.357.784.536,1.296.536h-1.823c-.513,0-.947-.179-1.305-.536ZM255.299,74.86c-.176-.181-.264-.4-.264-.656v-.912h.912c.245,0,.458.091.64.272.182.182.271.395.271.64v.928h-.911c-.257,0-.473-.09-.648-.272ZM257.124,73.028c-.176-.176-.265-.392-.265-.648v-.912h.912c.257,0,.473.09.648.272.176.181.264.395.264.64v.912h-.912c-.256,0-.472-.088-.647-.264ZM256.859,78.781c.502,0,.931-.179,1.288-.536s.536-.787.536-1.288h1.824c.512,0,.946.179,1.304.536s.536.787.536,1.288v3.664c0,.502-.179.931-.536,1.288-.357.357-.792.536-1.304.536,0-.501-.176-.931-.528-1.288-.352-.357-.783-.536-1.296-.536h1.824v-3.664h-1.824v3.664c0,.502-.179.931-.536,1.288-.357.357-.786.536-1.288.536v-5.488Z" stroke-width="0"/>
    <path d="M282.203,76.956h-1.824c.502,0,.931-.179,1.288-.536.357-.357.536-.786.536-1.288.512,0,.946.176,1.304.528s.536.784.536,1.296v3.648c0,.512-.179.947-.536,1.304s-.792.536-1.304.536v-5.488ZM282.739,87.396c-.357-.357-.536-.792-.536-1.304v-1.824c0-.501.179-.931.536-1.288.357-.357.792-.536,1.304-.536h1.824c-.512,0-.944.179-1.296.536-.353.357-.528.787-.528,1.288v3.664c-.512,0-.946-.179-1.304-.536ZM285.331,87.396c.357-.357.536-.792.536-1.304v-5.488h-1.824c.501,0,.931-.176,1.288-.528s.536-.784.536-1.296c.501,0,.931.179,1.288.536.357.357.536.787.536,1.288v1.84c0,.502.179.931.536,1.288.356.357.786.536,1.288.536h-1.824v1.824c0,.512-.179.946-.536,1.304s-.787.536-1.288.536h-1.824c.501,0,.931-.179,1.288-.536ZM290.819,83.732c.357-.357.536-.789.536-1.296s-.179-.938-.536-1.296-.792-.536-1.304-.536h1.84c.501,0,.931.179,1.288.536.356.357.535.79.535,1.296s-.179.939-.535,1.296c-.357.357-.787.536-1.288.536h-1.84c.512,0,.946-.179,1.304-.536Z" stroke-width="0"/>
  </g>
  <g>
    <rect x="51.285" y="93.409" width="29.885" height="29.885" fill="#fff" stroke="#000" stroke-miterlimit="10"/>
    <rect x="81.17" y="93.409" width="29.885" height="29.885" fill="#fff" stroke="#000" stroke-miterlimit="10"/>
    <rect x="111.055" y="93.409" width="29.885" height="29.885" fill="#fff" stroke="#000" stroke-miterlimit="10"/>
    <rect x="140.941" y="93.409" width="29.885" height="29.885" fill="#fff" stroke="#000" stroke-miterlimit="10"/>
    <rect x="170.826" y="93.409" width="29.885" height="29.885" fill="#fff" stroke="#000" stroke-miterlimit="10"/>
    <rect x="200.711" y="93.409" width="29.885" height="29.885" fill="#fff" stroke="#000" stroke-miterlimit="10"/>
    <rect x="230.596" y="93.409" width="29.885" height="29.885" fill="#fff" stroke="#000" stroke-miterlimit="10"/>
    <rect x="260.481" y="93.409" width="29.885" height="29.885" fill="#d6d6d6" stroke="#000" stroke-miterlimit="10"/>
    <rect x="290.366" y="93.409" width="29.885" height="29.885" fill="#d6d6d6" stroke="#000" stroke-miterlimit="10"/>
    <rect x="320.251" y="93.409" width="29.885" height="29.885" fill="#d6d6d6" stroke="#000" stroke-miterlimit="10"/>
  </g>
  <g>
    <path d="M59.249,113.617c-.357-.356-.535-.786-.535-1.288v-5.487h-1.824c.502,0,.931-.179,1.288-.536.356-.357.536-.786.536-1.288.512,0,.946.176,1.304.528.357.352.536.783.536,1.296v5.487c0,.502.176.932.527,1.288.353.357.785.536,1.297.536h-1.824c-.512,0-.947-.179-1.305-.536ZM62.641,110.225c-.176-.176-.264-.392-.264-.648v-.911h.912c.256,0,.472.09.647.271.177.182.265.395.265.64v.912h-.912c-.256,0-.473-.088-.648-.264ZM63.665,113.617c.357-.356.537-.786.537-1.288h1.824v-1.84c0,.513.178.947.535,1.305s.792.535,1.305.535c0,.502-.18.932-.537,1.288-.357.357-.791.536-1.303.536h-3.648c.501,0,.93-.179,1.287-.536ZM70.225,113.617c-.357-.356-.536-.786-.536-1.288v-1.84h-3.663c.512,0,.945-.176,1.303-.527.357-.353.537-.784.537-1.296h1.823c.501,0,.931.179,1.288.535.357.357.536.787.536,1.288v3.664c-.501,0-.931-.179-1.288-.536ZM72.817,113.617c.357-.356.536-.789.536-1.296s-.179-.938-.536-1.296-.791-.536-1.304-.536h1.84c.501,0,.931.179,1.288.536s.536.79.536,1.296-.179.939-.536,1.296c-.357.357-.787.536-1.288.536h-1.84c.513,0,.946-.179,1.304-.536Z" stroke-width="0"/>
    <path d="M94.76,113.617c-.357-.356-.535-.786-.535-1.288h-1.824c.501,0,.931-.178,1.288-.535.356-.357.536-.792.536-1.305.512,0,.946.179,1.304.536s.536.792.536,1.304v1.824c-.512,0-.947-.179-1.305-.536ZM97.353,113.617c.356-.356.536-.789.536-1.296s-.18-.938-.536-1.296c-.358-.357-.787-.536-1.288-.536h1.824c.501,0,.93.179,1.287.536s.537.79.537,1.296-.18.939-.537,1.296c-.357.357-.786.536-1.287.536h-1.824c.501,0,.93-.179,1.288-.536Z" stroke-width="0"/>
    <path d="M120.88,113.617c-.357-.356-.536-.786-.536-1.288v-5.487h-1.824c.502,0,.932-.179,1.289-.536.356-.357.535-.786.535-1.288.512,0,.947.176,1.305.528.357.352.535.783.535,1.296v5.487c0,.502.176.932.528,1.288.353.357.784.536,1.296.536h-1.824c-.512,0-.946-.179-1.304-.536ZM122.449,104.745c-.177-.181-.265-.399-.265-.655v-.912h.912c.246,0,.459.091.641.271.182.182.271.396.271.641v.928h-.912c-.256,0-.472-.091-.647-.272ZM124.272,102.913c-.176-.176-.264-.392-.264-.647v-.912h.912c.256,0,.473.091.648.272.176.181.264.395.264.64v.912h-.912c-.256,0-.472-.088-.648-.265ZM124.545,115.441c-.357-.357-.536-.786-.536-1.288v-5.487c.502,0,.931-.179,1.288-.536s.536-.787.536-1.288h1.824c.512,0,.946.179,1.304.536s.536.786.536,1.288v3.663c0,.502-.179.932-.536,1.288-.357.357-.792.536-1.304.536h-1.824c.512,0,.943-.179,1.296-.536.353-.356.528-.786.528-1.288v-3.663h-1.824v5.487c0,.502.179.931.536,1.288.356.357.786.536,1.288.536h-1.824c-.502,0-.931-.179-1.288-.536ZM128.961,115.441c.357-.357.536-.786.536-1.288.501,0,.931-.179,1.288-.536s.536-.789.536-1.296-.18-.938-.536-1.296c-.357-.357-.787-.536-1.288-.536h1.824c.501,0,.93.179,1.287.536s.537.79.537,1.296-.18.939-.537,1.296c-.357.357-.786.536-1.287.536,0,.502-.18.931-.536,1.288-.357.357-.787.536-1.288.536h-1.84c.512,0,.946-.179,1.304-.536Z" stroke-width="0"/>
    <path d="M152.128,106.842h-1.824c.502,0,.932-.179,1.289-.536.356-.357.535-.786.535-1.288.512,0,.947.176,1.305.528.357.352.535.783.535,1.296v1.824c.502,0,.932-.179,1.289-.536.356-.357.535-.787.535-1.288h1.824c.512,0,.943.179,1.296.536s.528.786.528,1.288v1.823c0,.513-.176.947-.528,1.305s-.784.535-1.296.535h-1.824c.502,0,.931-.178,1.288-.535s.536-.792.536-1.305v-1.823h-1.824c-.512,0-.943.179-1.296.535-.353.357-.528.787-.528,1.288v7.328c0,.501-.178.931-.535,1.288s-.793.536-1.305.536v-12.8ZM154.232,104.745c-.177-.181-.265-.399-.265-.655v-.912h.912c.246,0,.459.091.641.271.182.182.271.396.271.641v.928h-.912c-.256,0-.472-.091-.647-.272ZM154.496,112.865c.353-.356.784-.536,1.296-.536,0,.502.179.932.536,1.288.357.357.786.536,1.288.536h-3.648c0-.501.176-.931.528-1.288ZM158.912,113.617c.353-.356.528-.786.528-1.288h1.84c0,.502-.179.932-.536,1.288-.357.357-.792.536-1.304.536h-1.824c.512,0,.943-.179,1.296-.536Z" stroke-width="0"/>
    <path d="M182.015,106.842h-1.824c.502,0,.931-.179,1.288-.536s.536-.786.536-1.288c.512,0,.946.176,1.304.528.357.352.536.783.536,1.296v1.824c.501,0,.931-.179,1.288-.536s.536-.787.536-1.288h1.824c.512,0,.943.179,1.296.536.352.357.528.786.528,1.288v1.823c0,.513-.177.947-.528,1.305-.353.357-.784.535-1.296.535h-1.824c.501,0,.931-.178,1.288-.535s.536-.792.536-1.305v-1.823h-1.824c-.512,0-.944.179-1.296.535-.353.357-.528.787-.528,1.288v1.84c0,.502-.179.932-.536,1.288-.357.357-.792.536-1.304.536v-7.312ZM184.12,104.745c-.177-.181-.265-.399-.265-.655v-.912h.912c.245,0,.459.091.64.271.182.182.272.396.272.641v.928h-.912c-.256,0-.472-.091-.647-.272ZM184.383,112.865c.352-.356.784-.536,1.296-.536,0,.502.179.932.536,1.288.357.357.786.536,1.288.536h-3.648c0-.501.176-.931.528-1.288ZM188.799,113.617c.352-.356.528-.786.528-1.288h1.84c0,.502-.179.932-.536,1.288-.357.357-.792.536-1.304.536h-1.824c.512,0,.943-.179,1.296-.536Z" stroke-width="0"/>
    <path d="M213.335,113.617c-.357-.356-.535-.786-.535-1.288v-5.487h-1.824c.501,0,.931-.179,1.288-.536.356-.357.536-.786.536-1.288.512,0,.946.176,1.304.528.357.352.536.783.536,1.296v5.487c0,.502.176.932.527,1.288.353.357.784.536,1.296.536h-1.823c-.513,0-.947-.179-1.305-.536ZM217.751,113.617c.357-.356.536-.786.536-1.288h1.824c0,.502-.176.932-.528,1.288-.352.357-.783.536-1.296.536h-1.824c.502,0,.931-.179,1.288-.536Z" stroke-width="0"/>
    <path d="M241.806,106.842h-1.824c.502,0,.931-.179,1.288-.536s.536-.786.536-1.288c.512,0,.946.176,1.304.528.357.352.536.783.536,1.296v1.824c.501,0,.931-.179,1.288-.536s.536-.787.536-1.288h1.824c.512,0,.943.179,1.296.536.352.357.528.786.528,1.288v1.823c0,.513-.177.947-.528,1.305-.353.357-.784.535-1.296.535h-1.824c.501,0,.931-.178,1.288-.535s.536-.792.536-1.305v-1.823h-1.824c-.512,0-.944.179-1.296.535-.353.357-.528.787-.528,1.288v1.84c0,.502-.179.932-.536,1.288-.357.357-.792.536-1.304.536v-7.312ZM244.174,112.865c.352-.356.784-.536,1.296-.536,0,.502.179.932.536,1.288.357.357.786.536,1.288.536h-3.648c0-.501.176-.931.528-1.288ZM248.59,113.617c.352-.356.528-.786.528-1.288h1.84c0,.502-.179.932-.536,1.288-.357.357-.792.536-1.304.536h-1.824c.512,0,.943-.179,1.296-.536Z" stroke-width="0"/>
  </g>
</svg>