<?xml version="1.0" encoding="UTF-8"?>
<svg id="a" data-name="레이어 1" xmlns="http://www.w3.org/2000/svg" width="424.354" height="167.027" viewBox="0 0 424.354 167.027">
  <g>
    <rect x="2.982" y="3.753" width="29.885" height="29.885" fill="#d6d6d6" stroke="#000" stroke-miterlimit="10"/>
    <rect x="32.867" y="3.753" width="29.885" height="29.885" fill="#fff" stroke="#000" stroke-miterlimit="10"/>
    <rect x="62.752" y="3.753" width="29.885" height="29.885" fill="#fff" stroke="#000" stroke-miterlimit="10"/>
    <rect x="92.637" y="3.753" width="29.885" height="29.885" fill="#fff" stroke="#000" stroke-miterlimit="10"/>
    <rect x="122.522" y="3.753" width="29.885" height="29.885" fill="#fff" stroke="#000" stroke-miterlimit="10"/>
    <rect x="152.407" y="3.753" width="29.885" height="29.885" fill="#fff" stroke="#000" stroke-miterlimit="10"/>
    <rect x="182.292" y="3.753" width="29.885" height="29.885" fill="#fff" stroke="#000" stroke-miterlimit="10"/>
    <rect x="212.177" y="3.753" width="29.885" height="29.885" fill="#fff" stroke="#000" stroke-miterlimit="10"/>
    <rect x="242.062" y="3.753" width="29.885" height="29.885" fill="#fff" stroke="#000" stroke-miterlimit="10"/>
    <rect x="271.947" y="3.753" width="29.885" height="29.885" fill="#fff" stroke="#000" stroke-miterlimit="10"/>
    <rect x="301.832" y="3.753" width="29.885" height="29.885" fill="#fff" stroke="#000" stroke-miterlimit="10"/>
    <rect x="331.717" y="3.753" width="29.885" height="29.885" fill="#d6d6d6" stroke="#000" stroke-miterlimit="10"/>
    <rect x="361.603" y="3.753" width="29.885" height="29.885" fill="#d6d6d6" stroke="#000" stroke-miterlimit="10"/>
    <rect x="391.488" y="3.753" width="29.885" height="29.885" fill="#d6d6d6" stroke="#000" stroke-miterlimit="10"/>
  </g>
  <g>
    <path d="M18.466,15.162c-.149.155-.333.232-.552.232s-.406-.077-.56-.232c-.155-.155-.232-.341-.232-.56s.077-.405.232-.56.341-.232.56-.232.402.078.552.232c.149.155.224.342.224.56s-.075.405-.224.56ZM18.482,24.498h-1.152v-7.712h1.152v7.712Z" fill="#000" stroke-width="0"/>
    <path d="M348.157,15.186h-2.784v-1.168h2.784v1.168ZM347.34,24.498h-1.151v-7.712h1.151v7.712Z" fill="#000" stroke-width="0"/>
    <path d="M377.567,19.17h-.829v-5.739h-.037l-1.603,1.065v-.829l1.64-1.093h.829v6.595Z" fill="#000" stroke-width="0"/>
  </g>
  <g>
    <rect x="17.924" y="33.639" width="29.885" height="29.885" fill="#fff" stroke="#000" stroke-miterlimit="10"/>
    <rect x="47.809" y="33.639" width="29.885" height="29.885" fill="#fff" stroke="#000" stroke-miterlimit="10"/>
    <rect x="77.694" y="33.639" width="29.885" height="29.885" fill="#fff" stroke="#000" stroke-miterlimit="10"/>
    <rect x="107.58" y="33.639" width="29.885" height="29.885" fill="#fff" stroke="#000" stroke-miterlimit="10"/>
    <rect x="137.465" y="33.639" width="29.885" height="29.885" fill="#fff" stroke="#000" stroke-miterlimit="10"/>
    <rect x="167.35" y="33.639" width="29.885" height="29.885" fill="#fff" stroke="#000" stroke-miterlimit="10"/>
    <rect x="197.235" y="33.639" width="29.885" height="29.885" fill="#fff" stroke="#000" stroke-miterlimit="10"/>
    <rect x="227.12" y="33.639" width="29.885" height="29.885" fill="#fff" stroke="#000" stroke-miterlimit="10"/>
    <rect x="257.005" y="33.639" width="29.885" height="29.885" fill="#fff" stroke="#000" stroke-miterlimit="10"/>
    <rect x="286.89" y="33.639" width="29.885" height="29.885" fill="#fff" stroke="#000" stroke-miterlimit="10"/>
    <rect x="316.775" y="33.639" width="29.885" height="29.885" fill="#d6d6d6" stroke="#000" stroke-miterlimit="10"/>
    <rect x="346.66" y="33.639" width="29.885" height="29.885" fill="#d6d6d6" stroke="#000" stroke-miterlimit="10"/>
  </g>
  <g>
    <path d="M66.176,51.103h-6.864v-1.152h6.864v1.152Z" fill="#000" stroke-width="0"/>
    <path d="M96.072,47.823h-6.864v-1.152h6.864v1.152ZM96.072,54.383h-6.864v-1.168h6.864v1.168Z" fill="#000" stroke-width="0"/>
    <path d="M125.967,46.671v1.152l-5.28,5.392h5.28v1.168h-6.864v-1.168l5.28-5.392h-5.28v-1.152h6.864Z" fill="#000" stroke-width="0"/>
    <path d="M150.254,46.671v6.544h5.696v1.168h-6.864v-7.712h1.168ZM153.679,50.527h-1.152v-3.856h1.152v3.856ZM155.951,50.527h-1.168v-3.856h1.168v3.856Z" fill="#000" stroke-width="0"/>
    <path d="M185.894,49.935v1.168h-5.696v3.28h-1.168v-7.712h1.168v3.264h5.696Z" fill="#000" stroke-width="0"/>
    <path d="M212.806,53.215h2.847v1.168h-6.863v-1.168h2.848v-6.544h1.168v6.544Z" fill="#000" stroke-width="0"/>
    <path d="M242.708,54.383h-1.168v-7.712h1.168v7.712Z" fill="#000" stroke-width="0"/>
    <path d="M275.444,46.671v1.152h-2.848v6.56h-1.168v-6.56h-2.848v-1.152h6.863Z" fill="#000" stroke-width="0"/>
    <path d="M304.083,46.671h1.168v7.712h-6.863v-1.168h5.695v-6.544ZM299.556,50.527h-1.168v-3.856h1.168v3.856ZM301.828,50.527h-1.168v-3.856h1.168v3.856Z" fill="#000" stroke-width="0"/>
  </g>
  <g>
    <rect x="32.867" y="63.524" width="29.885" height="29.885" fill="#fff" stroke="#000" stroke-miterlimit="10"/>
    <rect x="62.752" y="63.524" width="29.885" height="29.885" fill="#fff" stroke="#000" stroke-miterlimit="10"/>
    <rect x="92.637" y="63.524" width="29.885" height="29.885" fill="#fff" stroke="#000" stroke-miterlimit="10"/>
    <rect x="122.522" y="63.524" width="29.885" height="29.885" fill="#ffce00" stroke="#000" stroke-miterlimit="10"/>
    <rect x="152.407" y="63.524" width="29.885" height="29.885" fill="#fff" stroke="#000" stroke-miterlimit="10"/>
    <rect x="182.292" y="63.524" width="29.885" height="29.885" fill="#fff" stroke="#000" stroke-miterlimit="10"/>
    <rect x="212.177" y="63.524" width="29.885" height="29.885" fill="#ffce00" stroke="#000" stroke-miterlimit="10"/>
    <rect x="242.062" y="63.524" width="29.885" height="29.885" fill="#fff" stroke="#000" stroke-miterlimit="10"/>
    <rect x="271.947" y="63.524" width="29.885" height="29.885" fill="#fff" stroke="#000" stroke-miterlimit="10"/>
    <rect x="301.832" y="63.524" width="29.885" height="29.885" fill="#d6d6d6" stroke="#000" stroke-miterlimit="10"/>
    <rect x="331.717" y="63.524" width="29.885" height="29.885" fill="#d6d6d6" stroke="#000" stroke-miterlimit="10"/>
  </g>
  <g>
    <path d="M49.919,76.556h1.168v7.712h-1.168v-3.28h-5.696v-1.152h5.696v-3.28Z" fill="#000" stroke-width="0"/>
    <path d="M81.382,76.556v1.152h-5.696v6.56h-1.168v-7.712h6.864Z" fill="#000" stroke-width="0"/>
    <path d="M105.342,76.556v6.544h5.696v1.168h-6.864v-7.712h1.168ZM111.038,80.412h-1.152v-3.856h1.152v3.856Z" fill="#000" stroke-width="0"/>
    <path d="M139.758,76.556h1.152v7.712h-6.864v-7.712h1.168v6.544h4.544v-6.544Z" fill="#000" stroke-width="0"/>
    <path d="M163.677,76.556h6.864v7.712h-1.168v-6.56h-5.696v-1.152Z" fill="#000" stroke-width="0"/>
    <path d="M199.26,76.556h1.44v7.712h-1.168v-6.064l-4.256,6.064h-1.44v-7.712h1.168v6.064l4.256-6.064Z" fill="#000" stroke-width="0"/>
    <path d="M229.165,76.556h1.439l-5.424,7.712h-1.44l5.425-7.712Z" fill="#000" stroke-width="0"/>
    <path d="M253.54,76.556h6.864v7.712h-1.152v-6.56h-5.712v-1.152ZM254.707,84.268h-1.168v-3.856h1.168v3.856ZM256.98,84.268h-1.168v-3.856h1.168v3.856Z" fill="#000" stroke-width="0"/>
    <path d="M284.714,76.556v6.544h5.696v1.168h-6.864v-7.712h1.168ZM290.411,77.708h-3.855v-1.152h3.855v1.152Z" fill="#000" stroke-width="0"/>
    <g>
      <path d="M340.915,74.292c.106-.112.237-.168.392-.168s.285.056.392.168c.107.112.16.243.16.392s-.053.277-.16.384c-.106.107-.237.16-.392.16s-.285-.053-.392-.16c-.107-.106-.16-.234-.16-.384s.053-.28.16-.392ZM343.01,74.084c-.149.155-.334.232-.552.232s-.406-.077-.561-.232c-.154-.154-.231-.341-.231-.56s.077-.405.231-.56c.154-.154.342-.232.561-.232s.402.078.552.232c.149.155.224.342.224.56s-.074.406-.224.56ZM343.026,84.268h-1.151v-7.712h1.151v7.712ZM343.203,74.292c.106-.112.237-.168.392-.168s.285.056.392.168c.106.112.16.243.16.392s-.054.277-.16.384c-.106.107-.237.16-.392.16s-.285-.053-.392-.16c-.107-.106-.16-.234-.16-.384s.053-.28.16-.392Z" fill="#000" stroke-width="0"/>
      <path d="M350.578,73.812c.149.155.225.342.225.56s-.075.405-.225.56-.333.232-.552.232-.405-.077-.56-.232c-.155-.155-.232-.341-.232-.56s.077-.405.232-.56c.154-.154.341-.232.56-.232s.402.078.552.232ZM351.585,84.268h-1.151v-7.712h1.151v7.712ZM351.434,73.812c.154-.154.341-.232.56-.232s.405.078.561.232c.154.155.231.342.231.56s-.077.405-.231.56c-.155.155-.342.232-.561.232s-.405-.077-.56-.232c-.155-.155-.232-.341-.232-.56s.077-.405.232-.56Z" fill="#000" stroke-width="0"/>
    </g>
  </g>
  <g>
    <rect x="51.285" y="93.409" width="29.885" height="29.885" fill="#fff" stroke="#000" stroke-miterlimit="10"/>
    <rect x="81.17" y="93.409" width="29.885" height="29.885" fill="#fff" stroke="#000" stroke-miterlimit="10"/>
    <rect x="111.055" y="93.409" width="29.885" height="29.885" fill="#fff" stroke="#000" stroke-miterlimit="10"/>
    <rect x="140.941" y="93.409" width="29.885" height="29.885" fill="#fff" stroke="#000" stroke-miterlimit="10"/>
    <rect x="170.826" y="93.409" width="29.885" height="29.885" fill="#fff" stroke="#000" stroke-miterlimit="10"/>
    <rect x="200.711" y="93.409" width="29.885" height="29.885" fill="#fff" stroke="#000" stroke-miterlimit="10"/>
    <rect x="230.596" y="93.409" width="29.885" height="29.885" fill="#fff" stroke="#000" stroke-miterlimit="10"/>
    <rect x="260.481" y="93.409" width="29.885" height="29.885" fill="#d6d6d6" stroke="#000" stroke-miterlimit="10"/>
    <rect x="290.366" y="93.409" width="29.885" height="29.885" fill="#d6d6d6" stroke="#000" stroke-miterlimit="10"/>
    <rect x="320.251" y="93.409" width="29.885" height="29.885" fill="#d6d6d6" stroke="#000" stroke-miterlimit="10"/>
  </g>
  <g>
    <path d="M62.801,106.441h6.864v1.152h-5.696v6.56h-1.168v-7.712ZM69.666,114.153h-1.152v-3.855h1.152v3.855Z" fill="#000" stroke-width="0"/>
    <path d="M92.697,106.441h6.864v1.152h-5.696v6.56h-1.168v-7.712ZM99.561,114.153h-3.856v-1.168h3.856v1.168Z" fill="#000" stroke-width="0"/>
    <path d="M122.656,106.441h6.864v1.152h-5.696v6.56h-1.168v-7.712ZM127.249,114.153h-1.152v-3.855h1.152v3.855ZM129.52,114.153h-1.168v-3.855h1.168v3.855Z" fill="#000" stroke-width="0"/>
    <path d="M158.136,106.441h1.168v7.712h-6.864v-1.168h5.696v-6.544ZM153.608,110.298h-1.168v-3.856h1.168v3.856Z" fill="#000" stroke-width="0"/>
    <path d="M213.647,112.985h5.696v1.168h-6.864v-7.712h1.168v6.544Z" fill="#000" stroke-width="0"/>
    <path d="M247.639,106.441h1.151v7.712h-6.863v-1.168h5.712v-6.544Z" fill="#000" stroke-width="0"/>
  </g>
  <g>
    <path d="M36.635,135.513h6.864v7.712h-1.168v-6.56h-5.696v-1.152Z" fill="#000" stroke-width="0"/>
    <path d="M39.138,164.299c-.526-.192-.943-.474-1.25-.844-.308-.37-.487-.815-.539-1.336h1.406c.094.427.331.75.711.969.38.219.872.328,1.477.328.75,0,1.328-.167,1.734-.5s.609-.844.609-1.531v-1.719h-.109c-.146.25-.302.472-.469.664-.167.192-.417.37-.75.531-.333.161-.75.242-1.25.242-.688,0-1.305-.169-1.852-.508s-.977-.828-1.289-1.469-.469-1.394-.469-2.258c0-.854.153-1.602.461-2.242.307-.641.734-1.133,1.281-1.477s1.174-.516,1.883-.516c.5,0,.914.081,1.242.242s.565.325.711.492c.146.167.323.406.531.719h.109v-1.344h1.312v8.719c0,.698-.159,1.281-.477,1.75-.318.469-.753.815-1.305,1.039-.552.224-1.188.336-1.906.336-.677,0-1.279-.097-1.805-.289ZM42.208,159.541c.364-.239.641-.581.828-1.023s.281-.977.281-1.602c0-.614-.094-1.153-.281-1.617s-.461-.823-.82-1.078-.8-.383-1.32-.383-.964.136-1.328.406c-.365.271-.641.638-.828,1.102s-.281.987-.281,1.57c0,.594.094,1.114.281,1.562s.463.797.828,1.047c.364.25.807.375,1.328.375.51,0,.948-.12,1.312-.359Z" fill="#000" stroke-width="0"/>
  </g>
  <path d="M20.073,137.896h-.829v-5.739h-.037l-1.603,1.066v-.829l1.64-1.093h.829v6.595Z" fill="#000" stroke-width="0"/>
  <g>
    <path d="M77.945,135.513h6.864v7.712h-1.168v-6.56h-5.696v-1.152ZM79.113,143.224h-1.168v-3.856h1.168v3.856Z" fill="#000" stroke-width="0"/>
    <g>
      <path d="M79.968,164.299c-.526-.192-.943-.474-1.25-.844-.308-.37-.487-.815-.539-1.336h1.406c.094.427.331.75.711.969.38.219.872.328,1.477.328.75,0,1.328-.167,1.734-.5s.609-.844.609-1.531v-1.719h-.109c-.146.25-.302.472-.469.664-.167.192-.417.37-.75.531-.333.161-.75.242-1.25.242-.688,0-1.305-.169-1.852-.508s-.977-.828-1.289-1.469-.469-1.394-.469-2.258c0-.854.153-1.602.461-2.242.307-.641.734-1.133,1.281-1.477s1.174-.516,1.883-.516c.5,0,.914.081,1.242.242s.565.325.711.492c.146.167.323.406.531.719h.109v-1.344h1.312v8.719c0,.698-.159,1.281-.477,1.75-.318.469-.753.815-1.305,1.039-.552.224-1.188.336-1.906.336-.677,0-1.279-.097-1.805-.289ZM83.039,159.541c.364-.239.641-.581.828-1.023s.281-.977.281-1.602c0-.614-.094-1.153-.281-1.617s-.461-.823-.82-1.078-.8-.383-1.32-.383-.964.136-1.328.406c-.365.271-.641.638-.828,1.102s-.281.987-.281,1.57c0,.594.094,1.114.281,1.562s.463.797.828,1.047c.364.25.807.375,1.328.375.51,0,.948-.12,1.312-.359Z" fill="#000" stroke-width="0"/>
      <path d="M88.132,154.541h6.828v1.234h-6.828v-1.234ZM88.132,157.838h6.828v1.219h-6.828v-1.219Z" fill="#000" stroke-width="0"/>
    </g>
  </g>
  <g>
    <path d="M128.808,135.513h6.864v7.712h-1.152v-6.56h-5.712v-1.152ZM132.664,143.224h-3.856v-1.168h3.856v1.168Z" fill="#000" stroke-width="0"/>
    <g>
      <path d="M130.831,164.299c-.526-.192-.943-.474-1.25-.844-.308-.37-.487-.815-.539-1.336h1.406c.094.427.331.75.711.969.38.219.872.328,1.477.328.75,0,1.328-.167,1.734-.5s.609-.844.609-1.531v-1.719h-.109c-.146.25-.302.472-.469.664-.167.192-.417.37-.75.531-.333.161-.75.242-1.25.242-.688,0-1.305-.169-1.852-.508s-.977-.828-1.289-1.469-.469-1.394-.469-2.258c0-.854.153-1.602.461-2.242.307-.641.734-1.133,1.281-1.477s1.174-.516,1.883-.516c.5,0,.914.081,1.242.242s.565.325.711.492c.146.167.323.406.531.719h.109v-1.344h1.312v8.719c0,.698-.159,1.281-.477,1.75-.318.469-.753.815-1.305,1.039-.552.224-1.188.336-1.906.336-.677,0-1.279-.097-1.805-.289ZM133.901,159.541c.364-.239.641-.581.828-1.023s.281-.977.281-1.602c0-.614-.094-1.153-.281-1.617s-.461-.823-.82-1.078-.8-.383-1.32-.383-.964.136-1.328.406c-.365.271-.641.638-.828,1.102s-.281.987-.281,1.57c0,.594.094,1.114.281,1.562s.463.797.828,1.047c.364.25.807.375,1.328.375.51,0,.948-.12,1.312-.359Z" fill="#000" stroke-width="0"/>
      <path d="M138.995,154.541h6.828v1.234h-6.828v-1.234ZM138.995,157.838h6.828v1.219h-6.828v-1.219Z" fill="#000" stroke-width="0"/>
      <path d="M149.026,154.541h6.828v1.234h-6.828v-1.234ZM149.026,157.838h6.828v1.219h-6.828v-1.219Z" fill="#000" stroke-width="0"/>
    </g>
  </g>
  <g>
    <path d="M189.573,135.513h6.864v7.712h-1.152v-6.56h-5.712v-1.152ZM190.741,143.224h-1.168v-3.856h1.168v3.856ZM193.013,143.224h-1.168v-3.856h1.168v3.856Z" fill="#000" stroke-width="0"/>
    <path d="M190.091,149.916h1.344v11.312h-1.344v-11.312ZM191.326,156.494h.266l3.672-3.75h1.656l-3.953,4.016h-.125l-1.5,1.391-.016-1.656ZM192.201,157.056l.938-.938,4.047,5.109h-1.703l-3.281-4.172Z" fill="#000" stroke-width="0"/>
  </g>
  <g>
    <path d="M229.516,135.513h6.864v7.712h-1.152v-6.56h-5.712v-1.152ZM233.372,140.52h-3.855v-1.152h3.855v1.152ZM233.372,143.224h-3.855v-1.168h3.855v1.168Z" fill="#000" stroke-width="0"/>
    <g>
      <path d="M231.555,164.299c-.526-.192-.943-.474-1.25-.844-.308-.37-.487-.815-.539-1.336h1.406c.094.427.33.75.711.969.38.219.872.328,1.477.328.75,0,1.328-.167,1.734-.5s.609-.844.609-1.531v-1.719h-.109c-.146.25-.303.472-.469.664-.167.192-.417.37-.75.531-.334.161-.75.242-1.25.242-.688,0-1.305-.169-1.852-.508s-.977-.828-1.289-1.469-.469-1.394-.469-2.258c0-.854.153-1.602.461-2.242.307-.641.734-1.133,1.281-1.477s1.174-.516,1.883-.516c.5,0,.914.081,1.242.242s.564.325.711.492c.146.167.322.406.531.719h.109v-1.344h1.312v8.719c0,.698-.159,1.281-.477,1.75-.318.469-.753.815-1.305,1.039-.553.224-1.188.336-1.906.336-.678,0-1.279-.097-1.805-.289ZM234.625,159.541c.364-.239.641-.581.828-1.023s.281-.977.281-1.602c0-.614-.094-1.153-.281-1.617s-.461-.823-.82-1.078-.8-.383-1.32-.383-.964.136-1.328.406c-.365.271-.641.638-.828,1.102s-.281.987-.281,1.57c0,.594.094,1.114.281,1.562s.463.797.828,1.047c.364.25.807.375,1.328.375.51,0,.947-.12,1.312-.359Z" fill="#000" stroke-width="0"/>
      <path d="M240.532,161.228h-1.344v-11.312h1.344v4.156h.109c.208-.458.516-.812.922-1.062s.932-.375,1.578-.375c.594,0,1.106.117,1.539.352.432.234.766.591,1,1.07s.352,1.073.352,1.781v5.391h-1.344v-5.297c0-.438-.078-.815-.234-1.133s-.381-.558-.672-.719c-.292-.161-.641-.242-1.047-.242-.428,0-.805.089-1.133.266s-.589.44-.781.789c-.193.349-.289.763-.289,1.242v5.094Z" fill="#000" stroke-width="0"/>
    </g>
  </g>
  <g>
    <path d="M278.883,135.513h6.863v7.712h-1.168v-6.56h-2.256v6.56h-1.168v-6.56h-2.271v-1.152Z" fill="#000" stroke-width="0"/>
    <g>
      <path d="M281.386,164.299c-.526-.192-.943-.474-1.25-.844-.308-.37-.487-.815-.539-1.336h1.406c.094.427.33.75.711.969.38.219.872.328,1.477.328.75,0,1.328-.167,1.734-.5s.609-.844.609-1.531v-1.719h-.109c-.146.25-.303.472-.469.664-.167.192-.417.37-.75.531-.334.161-.75.242-1.25.242-.688,0-1.305-.169-1.852-.508s-.977-.828-1.289-1.469-.469-1.394-.469-2.258c0-.854.153-1.602.461-2.242.307-.641.734-1.133,1.281-1.477s1.174-.516,1.883-.516c.5,0,.914.081,1.242.242s.564.325.711.492c.146.167.322.406.531.719h.109v-1.344h1.312v8.719c0,.698-.159,1.281-.477,1.75-.318.469-.753.815-1.305,1.039-.553.224-1.188.336-1.906.336-.678,0-1.279-.097-1.805-.289ZM284.457,159.541c.364-.239.641-.581.828-1.023s.281-.977.281-1.602c0-.614-.094-1.153-.281-1.617s-.461-.823-.82-1.078-.8-.383-1.32-.383-.964.136-1.328.406c-.365.271-.641.638-.828,1.102s-.281.987-.281,1.57c0,.594.094,1.114.281,1.562s.463.797.828,1.047c.364.25.807.375,1.328.375.51,0,.947-.12,1.312-.359Z" fill="#000" stroke-width="0"/>
      <path d="M290.652,164.299c-.526-.192-.943-.474-1.25-.844-.308-.37-.487-.815-.539-1.336h1.406c.094.427.33.75.711.969.38.219.872.328,1.477.328.75,0,1.328-.167,1.734-.5s.609-.844.609-1.531v-1.719h-.109c-.146.25-.303.472-.469.664-.167.192-.417.37-.75.531-.334.161-.75.242-1.25.242-.688,0-1.305-.169-1.852-.508s-.977-.828-1.289-1.469-.469-1.394-.469-2.258c0-.854.153-1.602.461-2.242.307-.641.734-1.133,1.281-1.477s1.174-.516,1.883-.516c.5,0,.914.081,1.242.242s.564.325.711.492c.146.167.322.406.531.719h.109v-1.344h1.312v8.719c0,.698-.159,1.281-.477,1.75-.318.469-.753.815-1.305,1.039-.553.224-1.188.336-1.906.336-.678,0-1.279-.097-1.805-.289ZM293.722,159.541c.364-.239.641-.581.828-1.023s.281-.977.281-1.602c0-.614-.094-1.153-.281-1.617s-.461-.823-.82-1.078-.8-.383-1.32-.383-.964.136-1.328.406c-.365.271-.641.638-.828,1.102s-.281.987-.281,1.57c0,.594.094,1.114.281,1.562s.463.797.828,1.047c.364.25.807.375,1.328.375.51,0,.947-.12,1.312-.359Z" fill="#000" stroke-width="0"/>
      <path d="M298.816,154.541h6.828v1.234h-6.828v-1.234ZM298.816,157.838h6.828v1.219h-6.828v-1.219Z" fill="#000" stroke-width="0"/>
    </g>
  </g>
  <g>
    <path d="M387.037,133.625h14.399v9.6h-14.399v-9.6ZM401.116,142.904v-8.96h-13.76l13.76,8.96Z" fill="#000" stroke-width="0"/>
    <g>
      <path d="M386.636,150.94h6.864v1.168h-2.849v9.12h-1.168v-9.12h-2.848v-1.168ZM389.636,149.509c-.155.154-.342.231-.56.231s-.403-.077-.553-.231-.224-.342-.224-.561.074-.405.224-.56.334-.232.553-.232.404.078.56.232c.154.154.232.342.232.56s-.078.406-.232.561ZM391.612,149.509c-.149.154-.333.231-.552.231s-.405-.077-.56-.231c-.155-.154-.232-.342-.232-.561s.077-.405.232-.56c.154-.154.341-.232.56-.232s.402.078.552.232.225.342.225.56-.075.406-.225.561Z" fill="#000" stroke-width="0"/>
      <path d="M400.348,150.94h1.168v10.288h-1.168v-4.56h-5.696v-1.168h5.696v-4.561Z" fill="#000" stroke-width="0"/>
    </g>
  </g>
  <g>
    <path d="M348.611,136.665v1.168h-1.072v1.535h-1.152v-1.535h-1.12v1.535h-1.151v-1.535h-2.272v4.224h5.696v1.168h-6.864v-5.392h-1.072v-1.168h1.072v-1.152h1.168v1.152h2.272v-1.152h1.151v1.152h1.12v-1.152h1.152v1.152h1.072Z" fill="#000" stroke-width="0"/>
    <g>
      <path d="M343.583,153.869h-4.422v-1.125h4.422v1.125ZM341.802,150.713v8.078c0,.344.049.606.148.789.099.183.229.308.391.375.161.067.352.102.57.102.26,0,.525-.011.797-.031v1.25c-.271.042-.584.062-.938.062-.396,0-.771-.083-1.125-.25-.354-.167-.644-.417-.867-.75-.225-.333-.336-.734-.336-1.203v-8.422h1.359Z" fill="#000" stroke-width="0"/>
      <path d="M345.849,154.541h6.828v1.234h-6.828v-1.234ZM345.849,157.838h6.828v1.219h-6.828v-1.219Z" fill="#000" stroke-width="0"/>
    </g>
  </g>
</svg>