<?xml version="1.0" encoding="UTF-8"?>
<svg id="a" data-name="레이어 1" xmlns="http://www.w3.org/2000/svg" width="512" height="512" viewBox="0 0 512 512">
  <rect x="33.347" y="33.347" width="445.306" height="445.306" fill="#5e96b5"/>
  <g>
    <path d="m256,128h-96c-17.673,0-32,14.327-32,32v192c0,17.673,14.327,32,32,32h0c17.673,0,32-14.327,32-32v-128c0-17.673,14.327-32,32-32h128c17.673,0,32-14.327,32-32h0c0-17.673-14.327-32-32-32h-96Z" fill="#fff"/>
    <path d="m448,0H32C14.327,0,0,14.327,0,32v448c0,17.673,14.327,32,32,32h448c17.673,0,32-14.327,32-32V32C512,14.327,497.673,0,480,0h-32Zm0,128v288c0,17.673-14.327,32-32,32H96c-17.673,0-32-14.327-32-32V96c0-17.673,14.327-32,32-32h320c17.673,0,32,14.327,32,32v32Z" fill="#fff"/>
  </g>
</svg>